<?xml version="1.0" encoding="utf-8"?>
<!-- Generator: Adobe Illustrator 27.5.0, SVG Export Plug-In . SVG Version: 6.00 Build 0)  -->
<svg version="1.1" xmlns="http://www.w3.org/2000/svg" xmlns:xlink="http://www.w3.org/1999/xlink" x="0px" y="0px"
	 viewBox="0 0 500 500" style="enable-background:new 0 0 500 500;" xml:space="preserve">
<g id="Background_complete">
	<g>
		<g>
			<g>
				<g>
					<path style="fill:#F0F0F0;" d="M444.708,349.145H263.962c-3.232,0-5.862-2.63-5.862-5.862V80.009
						c0-3.232,2.63-5.862,5.862-5.862h180.746c3.232,0,5.862,2.629,5.862,5.862v263.273
						C450.57,346.515,447.94,349.145,444.708,349.145z M263.962,74.397c-3.095,0-5.612,2.518-5.612,5.612v263.273
						c0,3.095,2.518,5.612,5.612,5.612h180.746c3.095,0,5.612-2.518,5.612-5.612V80.009c0-3.094-2.518-5.612-5.612-5.612H263.962z"
						/>
				</g>
			</g>
			<g>
				<g>
					<path style="fill:#F0F0F0;" d="M236.28,349.145H55.534c-3.232,0-5.862-2.63-5.862-5.862V80.009
						c0-3.232,2.629-5.862,5.862-5.862H236.28c3.232,0,5.862,2.629,5.862,5.862v263.273
						C242.143,346.515,239.513,349.145,236.28,349.145z M55.534,74.397c-3.094,0-5.612,2.518-5.612,5.612v263.273
						c0,3.095,2.518,5.612,5.612,5.612H236.28c3.095,0,5.612-2.518,5.612-5.612V80.009c0-3.094-2.518-5.612-5.612-5.612H55.534z"/>
				</g>
			</g>
		</g>
		<g>
			<g>
				<rect x="0" y="410.214" style="fill:#F0F0F0;" width="500" height="0.25"/>
			</g>
		</g>
	</g>
	<g>
		<g>
			<polygon style="fill:#F5F5F5;" points="348.643,166.247 344.165,201.838 313.052,170.725 			"/>
		</g>
		<g>
			<polygon style="fill:#F5F5F5;" points="277.048,246.68 339.993,183.735 330.8,174.543 277.048,228.296 			"/>
		</g>
	</g>
	<g>
		<g>
			<path style="fill:#F5F5F5;" d="M110.481,298.063c6.454,12.402,1.635,27.69-10.77,34.145c-1.695,0.882-3.443,1.553-5.216,2.023
				c-2.229,0.592-4.496,0.865-6.741,0.839c-2.004-0.023-3.991-0.285-5.919-0.772c-0.589-0.148-1.173-0.318-1.749-0.509
				c-2.534-0.836-4.936-2.07-7.105-3.671c-0.424-0.312-0.839-0.638-1.243-0.978c-2.474-2.075-4.589-4.661-6.171-7.703
				c-0.144-0.278-0.284-0.559-0.416-0.843c-5.818-12.243-0.938-26.993,11.186-33.302c2.984-1.553,6.134-2.453,9.287-2.752
				c0.609-0.057,1.219-0.093,1.827-0.106c2.658-0.059,5.295,0.304,7.815,1.057c0.555,0.166,1.104,0.35,1.647,0.553
				c1.931,0.723,3.775,1.681,5.488,2.861c1.765,1.216,3.39,2.666,4.822,4.334c1.046,1.219,1.988,2.553,2.808,3.998
				C110.186,297.509,110.336,297.785,110.481,298.063z"/>
		</g>
		<path style="fill:#E0E0E0;" d="M106.386,301.242c-0.256-0.443-0.529-0.875-0.816-1.291c-1.296-1.89-2.878-3.507-4.656-4.817
			c-1.821-1.349-3.854-2.371-5.99-3.037c-0.552-0.174-1.111-0.324-1.672-0.449c-2.602-0.578-5.325-0.648-8.009-0.161
			c-0.656,0.123-1.314,0.275-1.959,0.46c-1.275,0.368-2.527,0.864-3.745,1.497c-9.624,5.01-13.539,16.718-9.021,26.462
			c-0.15-0.27-0.3-0.54-0.445-0.816c-5.15-9.895-1.287-22.141,8.608-27.292c9.9-5.151,22.141-1.287,27.292,8.608
			C106.118,300.684,106.254,300.965,106.386,301.242z"/>
		<g style="opacity:0.3;">
			<path d="M97.364,327.7c-0.216,0.115-0.428,0.22-0.645,0.32l-0.005,0.001c-0.222,0.106-0.439,0.206-0.661,0.303
				c-0.056,0.025-0.112,0.046-0.167,0.071c-0.241,0.103-0.484,0.197-0.721,0.29c-0.037,0.014-0.075,0.027-0.107,0.04
				c-0.793,0.297-1.597,0.538-2.406,0.725c-0.275,0.063-0.549,0.126-0.825,0.175c-0.551,0.107-1.1,0.189-1.652,0.248l-0.014,0.001
				c-0.177,0.019-0.36,0.033-0.538,0.047c-0.096,0.01-0.192,0.016-0.294,0.021c-0.144,0.01-0.289,0.016-0.429,0.021
				c-0.222,0.014-0.444,0.018-0.667,0.017c-0.285,0.006-0.572,0.002-0.859-0.011c-0.282-0.009-0.57-0.022-0.854-0.046
				c-0.235-0.019-0.465-0.038-0.7-0.066c-0.152-0.013-0.304-0.036-0.457-0.058c-0.123-0.011-0.246-0.032-0.369-0.048
				c-0.143-0.024-0.286-0.047-0.425-0.071c-0.227-0.039-0.455-0.083-0.683-0.131c-0.198-0.042-0.397-0.084-0.591-0.136
				c-0.045-0.01-0.089-0.02-0.134-0.03c-0.279-0.072-0.558-0.145-0.839-0.226c-0.26-0.074-0.516-0.159-0.778-0.247
				c-0.015-0.003-0.025-0.007-0.04-0.01c-0.156-0.051-0.312-0.108-0.464-0.164c-0.156-0.056-0.308-0.118-0.46-0.179
				c-0.147-0.057-0.293-0.114-0.441-0.176c-0.158-0.071-0.315-0.136-0.468-0.207c-0.148-0.067-0.296-0.138-0.449-0.21
				c-0.148-0.072-0.292-0.144-0.44-0.22c-0.302-0.152-0.601-0.315-0.901-0.491c-0.124-0.069-0.243-0.139-0.362-0.214
				c-0.295-0.173-0.581-0.36-0.864-0.553c-0.141-0.092-0.276-0.184-0.408-0.282c-0.43-0.304-0.842-0.629-1.247-0.964
				c-0.106-0.091-0.214-0.186-0.32-0.276c-0.235-0.208-0.466-0.416-0.693-0.635c-0.011-0.009-0.022-0.022-0.032-0.031
				c-0.227-0.218-0.449-0.442-0.663-0.672c-0.098-0.106-0.202-0.211-0.301-0.322c-0.049-0.053-0.094-0.111-0.144-0.164
				c-0.104-0.115-0.204-0.23-0.304-0.351c-0.016-0.018-0.033-0.035-0.044-0.053c-0.116-0.133-0.228-0.272-0.334-0.411
				c-0.123-0.152-0.241-0.304-0.354-0.462c-0.118-0.152-0.232-0.31-0.34-0.468c-0.091-0.126-0.177-0.253-0.264-0.384
				c-0.057-0.081-0.109-0.163-0.162-0.245c-0.075-0.113-0.15-0.231-0.221-0.35c-0.105-0.168-0.205-0.337-0.306-0.506
				c-4.518-9.744-0.603-21.452,9.021-26.462c1.218-0.633,2.47-1.129,3.745-1.497c0.645-0.185,1.303-0.337,1.959-0.46
				c2.683-0.488,5.406-0.417,8.009,0.161c0.561,0.125,1.12,0.274,1.672,0.449c2.136,0.666,4.17,1.687,5.99,3.037
				c1.778,1.31,3.36,2.927,4.656,4.817c0.286,0.416,0.56,0.848,0.816,1.291C110.904,310.986,106.989,322.695,97.364,327.7z"/>
		</g>
		<g>
			<path style="fill:#F0F0F0;" d="M97.364,327.7c-0.216,0.115-0.428,0.22-0.645,0.32l-0.005,0.001
				c-0.222,0.106-0.439,0.206-0.661,0.303c-0.056,0.025-0.112,0.046-0.167,0.071c-0.241,0.103-0.484,0.197-0.721,0.29
				c-0.037,0.014-0.075,0.027-0.107,0.04c-0.793,0.293-1.597,0.538-2.406,0.725c-0.275,0.063-0.549,0.126-0.825,0.175
				c-0.551,0.107-1.1,0.189-1.652,0.248l-0.225,0.024c-0.11,0.012-0.216,0.018-0.327,0.025c-0.096,0.01-0.192,0.016-0.294,0.021
				c-0.144,0.01-0.289,0.016-0.429,0.021c-0.222,0.014-0.444,0.018-0.667,0.017c-0.285,0.006-0.572,0.002-0.859-0.011
				c-0.282-0.009-0.57-0.022-0.854-0.046c-0.235-0.019-0.465-0.038-0.7-0.066c-0.152-0.013-0.304-0.036-0.457-0.058
				c-0.123-0.011-0.246-0.032-0.369-0.048c-0.143-0.024-0.286-0.047-0.425-0.071c-0.227-0.039-0.455-0.083-0.683-0.131
				c-0.198-0.042-0.397-0.084-0.591-0.136c-0.045-0.01-0.089-0.02-0.134-0.03c-0.279-0.072-0.558-0.145-0.839-0.226
				c-0.26-0.074-0.516-0.159-0.778-0.247c-0.015-0.003-0.025-0.007-0.04-0.01c-0.156-0.051-0.312-0.108-0.464-0.164
				c-0.156-0.056-0.308-0.118-0.46-0.179c-0.147-0.057-0.293-0.114-0.441-0.176c-0.158-0.071-0.315-0.136-0.468-0.207
				c-0.148-0.067-0.296-0.138-0.449-0.21c-0.148-0.072-0.292-0.144-0.44-0.22c-0.302-0.152-0.601-0.315-0.901-0.491
				c-0.124-0.069-0.243-0.139-0.362-0.214c-0.295-0.173-0.581-0.36-0.864-0.553c-0.141-0.092-0.276-0.184-0.408-0.282
				c-0.43-0.304-0.842-0.629-1.247-0.964c-0.106-0.091-0.214-0.186-0.32-0.276c-0.235-0.208-0.466-0.416-0.693-0.635
				c-0.011-0.009-0.022-0.022-0.032-0.031c-0.227-0.218-0.449-0.442-0.663-0.672c-0.098-0.106-0.202-0.211-0.301-0.322
				c-0.049-0.053-0.094-0.111-0.144-0.164c-0.104-0.115-0.204-0.23-0.304-0.351c-0.016-0.018-0.033-0.035-0.044-0.053
				c-0.116-0.133-0.228-0.272-0.334-0.411c-0.123-0.152-0.241-0.304-0.354-0.462c-0.118-0.152-0.232-0.31-0.34-0.468
				c-0.091-0.126-0.177-0.253-0.264-0.384c-0.057-0.081-0.109-0.163-0.162-0.245c-0.075-0.113-0.15-0.231-0.221-0.35
				c-0.105-0.168-0.205-0.337-0.306-0.506c-4.518-9.744-0.603-21.452,9.021-26.462c1.218-0.633,2.47-1.129,3.745-1.497
				c0.645-0.185,1.303-0.337,1.959-0.46c2.683-0.488,5.406-0.417,8.009,0.161c0.561,0.125,1.12,0.274,1.672,0.449
				c2.136,0.666,4.17,1.687,5.99,3.037c1.778,1.31,3.36,2.927,4.656,4.817c0.286,0.416,0.56,0.848,0.816,1.291
				C110.904,310.986,106.989,322.695,97.364,327.7z"/>
		</g>
		<g>
			<g>
				<g>
					<path style="fill:#E0E0E0;" d="M95.819,318.635l1.552,2.982l-3.788,1.971l-1.482-2.848c-2.771,1.237-5.754,1.868-7.883,1.713
						l-0.363-5.684c2.318,0.125,5.032-0.434,7.101-1.51c1.8-0.937,2.249-1.649,1.913-2.293c-1.23-2.364-10.635,4.954-14.285-2.058
						c-1.58-3.036-0.705-6.735,3.379-9.646l-1.524-2.928l3.788-1.971l1.496,2.875c2.086-0.847,4.286-1.343,6.265-1.28l0.483,5.587
						c-2.343,0.024-4.327,0.477-5.966,1.329c-1.854,0.965-2.165,1.81-1.83,2.454c1.175,2.257,10.593-5.035,14.201,1.897
						C100.387,312.126,99.606,315.743,95.819,318.635z"/>
				</g>
			</g>
			<g>
				<g>
					<path style="fill:#F5F5F5;" d="M95.193,317.701l1.552,2.982l-3.788,1.971l-1.482-2.848c-2.771,1.237-5.754,1.868-7.883,1.713
						l-0.363-5.684c2.319,0.125,5.032-0.434,7.101-1.51c1.8-0.937,2.249-1.649,1.913-2.293c-1.23-2.364-10.635,4.954-14.285-2.058
						c-1.58-3.036-0.705-6.735,3.379-9.646l-1.524-2.928l3.788-1.971l1.496,2.875c2.086-0.847,4.286-1.343,6.265-1.28l0.483,5.587
						c-2.343,0.024-4.327,0.477-5.966,1.329c-1.854,0.965-2.165,1.81-1.83,2.454c1.174,2.257,10.593-5.035,14.201,1.897
						C99.761,311.192,98.979,314.808,95.193,317.701z"/>
				</g>
			</g>
		</g>
	</g>
	<g>
		<g>
			<path style="fill:#F5F5F5;" d="M417.52,217.412c-3.755,13.467-17.717,21.343-31.187,17.587c-1.84-0.513-3.576-1.217-5.192-2.085
				c-2.032-1.089-3.875-2.438-5.497-3.991c-1.448-1.385-2.721-2.934-3.796-4.606c-0.329-0.511-0.639-1.033-0.93-1.567
				c-1.28-2.341-2.192-4.884-2.684-7.534c-0.097-0.518-0.177-1.039-0.24-1.564c-0.39-3.205-0.168-6.539,0.753-9.841
				c0.084-0.301,0.174-0.602,0.272-0.9c4.111-12.917,17.75-20.358,30.915-16.687c3.24,0.903,6.156,2.398,8.664,4.332
				c0.484,0.374,0.954,0.764,1.407,1.171c1.982,1.773,3.66,3.839,4.987,6.11c0.292,0.5,0.568,1.01,0.825,1.529
				c0.916,1.847,1.609,3.807,2.055,5.837c0.459,2.094,0.655,4.262,0.562,6.459c-0.068,1.604-0.291,3.223-0.68,4.838
				C417.683,216.807,417.604,217.11,417.52,217.412z"/>
		</g>
		<path style="fill:#E0E0E0;" d="M412.358,216.938c0.116-0.498,0.211-1.001,0.286-1.5c0.344-2.266,0.292-4.527-0.111-6.699
			c-0.409-2.229-1.196-4.364-2.302-6.309c-0.284-0.504-0.59-0.995-0.915-1.469c-1.506-2.199-3.447-4.111-5.74-5.587
			c-0.563-0.359-1.148-0.697-1.745-1.002c-1.183-0.602-2.436-1.095-3.758-1.464c-10.452-2.913-21.308,2.966-24.662,13.169
			c0.075-0.3,0.15-0.599,0.232-0.9c2.996-10.745,14.181-17.053,24.927-14.057c10.749,2.999,17.052,14.181,14.056,24.927
			C412.543,216.347,412.451,216.646,412.358,216.938z"/>
		<g style="opacity:0.3;">
			<path d="M387.698,230.103c-0.236-0.063-0.463-0.132-0.69-0.207l-0.004-0.003c-0.234-0.074-0.462-0.149-0.69-0.231
				c-0.058-0.019-0.113-0.043-0.171-0.062c-0.247-0.089-0.488-0.186-0.725-0.281c-0.037-0.016-0.073-0.031-0.106-0.044
				c-0.782-0.324-1.533-0.698-2.253-1.114c-0.244-0.141-0.487-0.283-0.722-0.436c-0.476-0.298-0.933-0.613-1.376-0.947l-0.012-0.009
				c-0.142-0.107-0.286-0.222-0.425-0.333c-0.077-0.058-0.151-0.12-0.229-0.185c-0.113-0.091-0.222-0.186-0.328-0.278
				c-0.171-0.141-0.337-0.29-0.499-0.443c-0.213-0.191-0.419-0.389-0.62-0.595c-0.2-0.199-0.401-0.405-0.592-0.616
				c-0.159-0.174-0.314-0.345-0.466-0.527c-0.102-0.113-0.198-0.234-0.294-0.355c-0.082-0.092-0.158-0.192-0.236-0.287
				c-0.088-0.115-0.177-0.23-0.261-0.342c-0.139-0.184-0.276-0.371-0.409-0.563c-0.116-0.166-0.233-0.332-0.339-0.503
				c-0.026-0.038-0.052-0.075-0.078-0.113c-0.155-0.243-0.309-0.487-0.458-0.738c-0.139-0.232-0.269-0.469-0.399-0.712
				c-0.009-0.012-0.013-0.022-0.022-0.035c-0.079-0.144-0.154-0.292-0.226-0.437c-0.076-0.148-0.145-0.296-0.214-0.445
				c-0.068-0.142-0.136-0.284-0.201-0.43c-0.067-0.159-0.137-0.315-0.2-0.471c-0.062-0.15-0.122-0.303-0.185-0.46
				c-0.059-0.154-0.115-0.304-0.171-0.462c-0.117-0.318-0.224-0.64-0.322-0.974c-0.043-0.135-0.082-0.267-0.118-0.404
				c-0.098-0.327-0.178-0.66-0.253-0.994c-0.04-0.163-0.076-0.323-0.106-0.485c-0.107-0.515-0.186-1.034-0.252-1.555
				c-0.016-0.139-0.029-0.282-0.045-0.421c-0.03-0.313-0.056-0.622-0.073-0.937c-0.002-0.014-0.001-0.031-0.003-0.044
				c-0.016-0.314-0.026-0.63-0.025-0.943c0-0.145-0.003-0.292,0-0.441c0-0.072,0.007-0.146,0.007-0.218
				c0.002-0.155,0.009-0.308,0.018-0.464c0-0.024,0-0.048,0.004-0.07c0.006-0.176,0.019-0.354,0.036-0.528
				c0.014-0.195,0.032-0.387,0.057-0.579c0.018-0.192,0.043-0.385,0.071-0.575c0.02-0.154,0.043-0.306,0.07-0.461
				c0.014-0.098,0.031-0.194,0.049-0.289c0.023-0.134,0.048-0.272,0.077-0.407c0.038-0.195,0.08-0.387,0.122-0.578
				c3.354-10.203,14.211-16.082,24.662-13.169c1.322,0.369,2.576,0.862,3.758,1.464c0.597,0.305,1.182,0.644,1.745,1.002
				c2.293,1.476,4.234,3.387,5.74,5.587c0.325,0.475,0.631,0.965,0.915,1.469c1.106,1.946,1.893,4.08,2.302,6.309
				c0.404,2.171,0.455,4.433,0.111,6.699c-0.075,0.499-0.17,1.002-0.286,1.5C409.003,227.141,398.147,233.02,387.698,230.103z"/>
		</g>
		<g>
			<path style="fill:#F0F0F0;" d="M387.698,230.103c-0.236-0.063-0.463-0.132-0.69-0.207l-0.004-0.003
				c-0.234-0.074-0.462-0.149-0.69-0.231c-0.058-0.019-0.113-0.043-0.171-0.062c-0.247-0.089-0.488-0.186-0.725-0.281
				c-0.037-0.016-0.073-0.031-0.106-0.044c-0.779-0.328-1.533-0.698-2.253-1.114c-0.244-0.141-0.487-0.283-0.722-0.436
				c-0.476-0.298-0.933-0.613-1.376-0.947l-0.181-0.137c-0.089-0.067-0.17-0.134-0.256-0.205c-0.077-0.058-0.151-0.12-0.229-0.185
				c-0.113-0.091-0.222-0.186-0.328-0.278c-0.171-0.141-0.337-0.29-0.499-0.443c-0.213-0.191-0.419-0.389-0.62-0.595
				c-0.2-0.199-0.401-0.405-0.592-0.616c-0.159-0.174-0.314-0.345-0.466-0.527c-0.102-0.113-0.198-0.234-0.294-0.355
				c-0.082-0.092-0.158-0.192-0.236-0.287c-0.088-0.115-0.177-0.23-0.261-0.342c-0.139-0.184-0.276-0.371-0.409-0.563
				c-0.116-0.166-0.233-0.332-0.339-0.503c-0.026-0.038-0.052-0.075-0.078-0.113c-0.155-0.243-0.309-0.487-0.458-0.738
				c-0.139-0.232-0.269-0.469-0.399-0.712c-0.009-0.012-0.013-0.022-0.022-0.035c-0.079-0.144-0.154-0.292-0.226-0.437
				c-0.076-0.148-0.145-0.296-0.214-0.445c-0.068-0.142-0.136-0.284-0.201-0.43c-0.067-0.159-0.137-0.315-0.2-0.471
				c-0.062-0.15-0.122-0.303-0.185-0.46c-0.059-0.154-0.115-0.304-0.171-0.462c-0.117-0.318-0.224-0.64-0.322-0.974
				c-0.043-0.135-0.082-0.267-0.118-0.404c-0.098-0.327-0.178-0.66-0.253-0.994c-0.04-0.163-0.076-0.323-0.106-0.485
				c-0.107-0.515-0.186-1.034-0.252-1.555c-0.016-0.139-0.029-0.282-0.045-0.421c-0.03-0.313-0.056-0.622-0.073-0.937
				c-0.002-0.014-0.001-0.031-0.003-0.044c-0.016-0.314-0.026-0.63-0.025-0.943c0-0.145-0.003-0.292,0-0.441
				c0-0.072,0.007-0.146,0.007-0.218c0.002-0.155,0.009-0.308,0.018-0.464c0-0.024,0-0.048,0.004-0.07
				c0.006-0.176,0.019-0.354,0.036-0.528c0.014-0.195,0.032-0.387,0.057-0.579c0.018-0.192,0.043-0.385,0.071-0.575
				c0.02-0.154,0.043-0.306,0.07-0.461c0.014-0.098,0.031-0.194,0.049-0.289c0.023-0.134,0.048-0.272,0.077-0.407
				c0.038-0.195,0.08-0.387,0.122-0.578c3.354-10.203,14.211-16.082,24.662-13.169c1.322,0.369,2.576,0.862,3.758,1.464
				c0.597,0.305,1.182,0.644,1.745,1.002c2.293,1.476,4.234,3.387,5.74,5.587c0.325,0.475,0.631,0.965,0.915,1.469
				c1.106,1.946,1.893,4.08,2.302,6.309c0.404,2.171,0.455,4.433,0.111,6.699c-0.075,0.499-0.17,1.002-0.286,1.5
				C409.003,227.141,398.147,233.02,387.698,230.103z"/>
		</g>
		<g>
			<g>
				<g>
					<path style="fill:#E0E0E0;" d="M392.76,222.426l-0.903,3.238l-4.114-1.147l0.862-3.092c-2.869-0.989-5.479-2.565-6.928-4.133
						l3.617-4.4c1.608,1.675,3.972,3.12,6.219,3.747c1.955,0.545,2.769,0.332,2.964-0.369c0.716-2.567-11.152-3.644-9.029-11.259
						c0.919-3.297,4.085-5.401,9.056-4.738l0.887-3.18l4.114,1.147l-0.87,3.122c2.102,0.806,4.048,1.946,5.451,3.344l-3.462,4.411
						c-1.728-1.582-3.486-2.607-5.266-3.104c-2.013-0.561-2.818-0.157-3.013,0.543c-0.683,2.451,11.177,3.557,9.078,11.084
						C400.543,220.792,397.502,222.9,392.76,222.426z"/>
				</g>
			</g>
			<g>
				<g>
					<path style="fill:#F5F5F5;" d="M392.941,221.316l-0.903,3.238l-4.113-1.147l0.862-3.092c-2.869-0.989-5.479-2.566-6.928-4.133
						l3.617-4.4c1.608,1.675,3.972,3.12,6.219,3.746c1.955,0.545,2.769,0.332,2.964-0.368c0.716-2.567-11.152-3.644-9.029-11.259
						c0.919-3.297,4.085-5.401,9.056-4.738l0.887-3.18l4.114,1.147l-0.871,3.122c2.102,0.806,4.048,1.946,5.451,3.344l-3.463,4.411
						c-1.728-1.583-3.486-2.607-5.266-3.104c-2.013-0.561-2.818-0.157-3.013,0.543c-0.684,2.451,11.177,3.557,9.078,11.084
						C400.723,219.681,397.683,221.789,392.941,221.316z"/>
				</g>
			</g>
		</g>
	</g>
	<g>
		<g>
			<polygon style="fill:#F5F5F5;" points="152.049,129.293 147.571,164.884 116.458,133.771 			"/>
		</g>
		<g>
			<polygon style="fill:#F5F5F5;" points="49.941,240.24 143.399,146.782 134.206,137.59 49.941,221.856 			"/>
		</g>
	</g>
	<g>
		<path style="fill:#F5F5F5;" d="M88.023,99.719v0.008c0,0.739-0.603,1.341-1.35,1.341h-5.34v5.34c0,0.739-0.603,1.341-1.341,1.341
			c-0.747,0-1.35-0.603-1.35-1.341v-5.34h-5.34c-0.739,0-1.341-0.603-1.341-1.341v-0.008c0-0.739,0.603-1.341,1.341-1.341h5.34
			v-5.34c0-0.739,0.603-1.341,1.35-1.341c0.739,0,1.341,0.603,1.341,1.341v5.34h5.34C87.421,98.377,88.023,98.98,88.023,99.719z"/>
	</g>
	<g>
		<path style="fill:#F5F5F5;" d="M425.53,112.155v0.008c0,0.739-0.603,1.341-1.35,1.341h-5.34v5.34c0,0.739-0.603,1.341-1.341,1.341
			c-0.747,0-1.35-0.603-1.35-1.341v-5.34h-5.34c-0.739,0-1.341-0.603-1.341-1.341v-0.008c0-0.739,0.603-1.341,1.341-1.341h5.34
			v-5.34c0-0.739,0.603-1.341,1.35-1.341c0.739,0,1.341,0.603,1.341,1.341v5.34h5.34C424.928,110.813,425.53,111.416,425.53,112.155
			z"/>
	</g>
	<g>
		<path style="fill:#F5F5F5;" d="M324.987,287.975v0.008c0,0.739-0.603,1.341-1.35,1.341h-5.34v5.34
			c0,0.739-0.603,1.341-1.341,1.341c-0.747,0-1.35-0.603-1.35-1.341v-5.34h-5.34c-0.739,0-1.341-0.603-1.341-1.341v-0.008
			c0-0.739,0.603-1.341,1.341-1.341h5.34v-5.34c0-0.739,0.603-1.341,1.35-1.341c0.739,0,1.341,0.603,1.341,1.341v5.34h5.34
			C324.384,286.633,324.987,287.236,324.987,287.975z"/>
	</g>
	<path style="fill:#F5F5F5;" d="M427.123,157.996c-1.903-4.439-6.704-12.734-16.621-14.997c-9.075-2.07-15.93,9.396-21.556,10.241
		c-5.627,0.845-5.001-1.69-16.255-5.914c-9.623-3.612-16.076,5.783-18.356,10.67H427.123z"/>
	<path style="fill:#F5F5F5;" d="M224.257,106.687c0,0,0-10.102-9.922-10.525c-4.741-0.202-10.535,3.681-14.194-2.46
		c-4.248-7.131-11.682-11.379-18.371-8.619c-7.392,3.049-11.583,14.734-18.799,13.778c-7.216-0.957-20.995-5.76-28.11,7.826H224.257
		z"/>
</g>
<g id="Background_simple" style="display:none;">
	<g style="display:inline;">
		<path style="fill:#407BFF;" d="M133.855,295.45c65.096,42.896,147.466,50.263,223.283,23.592
			c22.815-8.026,54.443-31.637,67.994-47.672c52.761-62.431,8.676-133.869-69.731-129.58
			c-78.408,4.289-113.989,58.566-156.279,8.252C146.99,88.019,62.56,112.944,59.419,177.78
			C57.701,213.234,76.102,257.393,133.855,295.45z"/>
		<path style="opacity:0.9;fill:#FFFFFF;" d="M133.855,295.45c65.096,42.896,147.466,50.263,223.283,23.592
			c22.815-8.026,54.443-31.637,67.994-47.672c52.761-62.431,8.676-133.869-69.731-129.58
			c-78.408,4.289-113.989,58.566-156.279,8.252C146.99,88.019,62.56,112.944,59.419,177.78
			C57.701,213.234,76.102,257.393,133.855,295.45z"/>
	</g>
</g>
<g id="Shadow">
	<ellipse style="fill:#F0F0F0;" cx="247.487" cy="433.595" rx="212" ry="6.072"/>
</g>
<g id="Coins">
	<g>
		<g>
			<path style="fill:#407BFF;" d="M369.679,387.128c6.448,19.167-3.86,39.934-23.031,46.383c-2.619,0.881-5.268,1.449-7.907,1.724
				c-3.317,0.348-6.618,0.23-9.821-0.309c-2.859-0.481-5.64-1.3-8.285-2.427c-0.808-0.344-1.605-0.717-2.386-1.119
				c-3.434-1.762-6.591-4.063-9.332-6.835c-0.536-0.541-1.056-1.099-1.558-1.676c-3.071-3.518-5.514-7.688-7.095-12.388
				c-0.144-0.429-0.281-0.862-0.405-1.298c-5.575-18.797,4.7-38.782,23.436-45.085c4.611-1.551,9.314-2.132,13.887-1.855
				c0.884,0.054,1.762,0.139,2.635,0.257c3.811,0.511,7.499,1.62,10.931,3.259c0.756,0.361,1.5,0.747,2.23,1.159
				c2.597,1.466,5.019,3.247,7.202,5.316c2.25,2.132,4.247,4.568,5.92,7.272c1.222,1.975,2.27,4.093,3.118,6.342
				C369.382,386.271,369.534,386.698,369.679,387.128z"/>
		</g>
		<g>
			<path style="fill:#407BFF;" d="M369.679,387.128c6.448,19.167-3.86,39.934-23.031,46.383c-2.619,0.881-5.268,1.449-7.907,1.724
				c-3.317,0.348-6.618,0.23-9.821-0.309c-2.859-0.481-5.64-1.3-8.285-2.427c-0.808-0.344-1.605-0.717-2.386-1.119
				c-3.434-1.762-6.591-4.063-9.332-6.835c-0.536-0.541-1.056-1.099-1.558-1.676c-3.071-3.518-5.514-7.688-7.095-12.388
				c-0.144-0.429-0.281-0.862-0.405-1.298c-5.575-18.797,4.7-38.782,23.436-45.085c4.611-1.551,9.314-2.132,13.887-1.855
				c0.884,0.054,1.762,0.139,2.635,0.257c3.811,0.511,7.499,1.62,10.931,3.259c0.756,0.361,1.5,0.747,2.23,1.159
				c2.597,1.466,5.019,3.247,7.202,5.316c2.25,2.132,4.247,4.568,5.92,7.272c1.222,1.975,2.27,4.093,3.118,6.342
				C369.382,386.271,369.534,386.698,369.679,387.128z"/>
		</g>
		<path style="opacity:0.6;" d="M363.116,390.755c-0.266-0.691-0.56-1.369-0.877-2.027c-1.429-2.99-3.328-5.655-5.576-7.925
			c-2.3-2.335-4.977-4.25-7.88-5.68c-0.75-0.373-1.515-0.711-2.289-1.015c-3.589-1.408-7.465-2.118-11.408-2.022
			c-0.965,0.029-1.939,0.099-2.902,0.218c-1.905,0.24-3.805,0.669-5.687,1.302c-14.874,5.005-23.088,20.861-18.812,35.796
			c-0.154-0.42-0.307-0.839-0.454-1.266c-5.145-15.293,3.115-31.928,18.408-37.073c15.299-5.145,31.928,3.115,37.073,18.408
			C362.858,389.897,362.99,390.33,363.116,390.755z"/>
		<g style="opacity:0.3;">
			<path d="M344.304,426.544c-0.334,0.116-0.66,0.218-0.993,0.314l-0.007,0c-0.34,0.102-0.673,0.197-1.013,0.285
				c-0.085,0.024-0.17,0.04-0.255,0.064c-0.368,0.093-0.735,0.173-1.095,0.253c-0.056,0.011-0.113,0.022-0.162,0.034
				c-1.2,0.247-2.402,0.411-3.6,0.498c-0.407,0.029-0.813,0.057-1.218,0.065c-0.812,0.029-1.615,0.024-2.416-0.016l-0.021-0.001
				c-0.258-0.013-0.522-0.033-0.78-0.053c-0.139-0.007-0.278-0.021-0.424-0.035c-0.209-0.017-0.417-0.042-0.618-0.066
				c-0.32-0.03-0.639-0.074-0.957-0.125c-0.409-0.055-0.818-0.125-1.226-0.208c-0.401-0.076-0.809-0.159-1.209-0.256
				c-0.331-0.079-0.655-0.158-0.986-0.252c-0.214-0.052-0.427-0.119-0.64-0.185c-0.172-0.044-0.344-0.101-0.516-0.151
				c-0.199-0.066-0.398-0.132-0.591-0.197c-0.316-0.107-0.632-0.22-0.947-0.341c-0.274-0.104-0.548-0.209-0.815-0.327
				c-0.062-0.024-0.123-0.048-0.185-0.072c-0.383-0.166-0.766-0.332-1.148-0.511c-0.355-0.164-0.702-0.342-1.056-0.528
				c-0.02-0.008-0.034-0.016-0.055-0.024c-0.211-0.108-0.422-0.224-0.626-0.339c-0.211-0.115-0.414-0.237-0.618-0.359
				c-0.197-0.115-0.394-0.229-0.59-0.351c-0.21-0.136-0.42-0.265-0.622-0.401c-0.196-0.129-0.392-0.264-0.595-0.4
				c-0.196-0.135-0.385-0.271-0.58-0.413c-0.398-0.285-0.788-0.584-1.177-0.904c-0.161-0.127-0.316-0.253-0.47-0.387
				c-0.382-0.312-0.75-0.645-1.11-0.984c-0.18-0.163-0.354-0.325-0.52-0.494c-0.546-0.53-1.063-1.087-1.566-1.656
				c-0.132-0.153-0.264-0.313-0.396-0.467c-0.29-0.35-0.573-0.699-0.848-1.062c-0.013-0.015-0.026-0.036-0.039-0.051
				c-0.275-0.363-0.543-0.732-0.797-1.108c-0.117-0.173-0.241-0.347-0.358-0.528c-0.059-0.087-0.11-0.18-0.168-0.267
				c-0.123-0.188-0.24-0.375-0.356-0.57c-0.02-0.029-0.039-0.058-0.052-0.086c-0.136-0.216-0.264-0.439-0.386-0.662
				c-0.142-0.245-0.276-0.489-0.403-0.74c-0.134-0.244-0.262-0.495-0.382-0.745c-0.102-0.201-0.197-0.401-0.291-0.608
				c-0.064-0.129-0.12-0.257-0.176-0.386c-0.082-0.179-0.163-0.364-0.238-0.55c-0.112-0.264-0.218-0.528-0.324-0.791
				c-4.276-14.935,3.939-30.79,18.812-35.796c1.882-0.632,3.782-1.061,5.687-1.302c0.963-0.12,1.937-0.19,2.902-0.218
				c3.944-0.097,7.819,0.614,11.408,2.022c0.774,0.304,1.539,0.642,2.289,1.015c2.904,1.43,5.581,3.344,7.88,5.68
				c2.247,2.27,4.147,4.935,5.576,7.925c0.316,0.658,0.611,1.336,0.877,2.027C367.392,405.69,359.177,421.545,344.304,426.544z"/>
		</g>
		<g>
			<g style="opacity:0.6;">
				<g>
					<path d="M344.125,413.245l1.55,4.609l-5.854,1.97l-1.481-4.401c-4.236,1.148-8.641,1.381-11.649,0.683l0.753-8.203
						c3.285,0.697,7.288,0.506,10.485-0.569c2.782-0.936,3.583-1.853,3.247-2.849c-1.229-3.654-16.306,4.7-19.952-6.137
						c-1.578-4.692,0.499-9.782,6.988-13.028l-1.523-4.526l5.854-1.97l1.495,4.443c3.17-0.743,6.425-0.96,9.239-0.427l-0.559,8.092
						c-3.354-0.49-6.29-0.287-8.823,0.565c-2.865,0.964-3.499,2.102-3.164,3.098c1.173,3.488,16.264-4.824,19.868,5.888
						C352.109,404.966,350.183,409.959,344.125,413.245z"/>
				</g>
			</g>
			<g>
				<g>
					<path style="fill:#407BFF;" d="M343.438,411.769l1.55,4.609l-5.854,1.969l-1.481-4.401c-4.236,1.148-8.641,1.381-11.649,0.684
						l0.753-8.203c3.285,0.697,7.288,0.506,10.485-0.569c2.782-0.936,3.583-1.853,3.248-2.849c-1.229-3.654-16.306,4.7-19.952-6.137
						c-1.578-4.692,0.499-9.782,6.987-13.028l-1.522-4.526l5.854-1.97l1.495,4.443c3.171-0.743,6.426-0.96,9.239-0.427l-0.56,8.092
						c-3.354-0.49-6.29-0.287-8.823,0.565c-2.865,0.964-3.499,2.102-3.164,3.098c1.173,3.488,16.264-4.824,19.868,5.888
						C351.423,403.49,349.497,408.483,343.438,411.769z"/>
				</g>
			</g>
		</g>
	</g>
	<g>
		<g>
			<path style="fill:#407BFF;" d="M170.536,235.83c-4.566,19.7-24.236,31.972-43.941,27.405c-2.692-0.624-5.245-1.53-7.635-2.681
				c-3.006-1.444-5.755-3.276-8.198-5.415c-2.182-1.909-4.119-4.066-5.78-6.413c-0.508-0.717-0.99-1.452-1.444-2.204
				c-1.999-3.301-3.479-6.917-4.359-10.715c-0.173-0.742-0.323-1.49-0.447-2.244c-0.768-4.606-0.661-9.438,0.459-14.269
				c0.102-0.441,0.214-0.881,0.336-1.318c5.116-18.927,24.347-30.551,43.605-26.087c4.739,1.098,9.048,3.071,12.795,5.707
				c0.724,0.51,1.427,1.043,2.108,1.602c2.977,2.435,5.534,5.313,7.596,8.509c0.454,0.704,0.885,1.423,1.29,2.157
				c1.442,2.61,2.569,5.398,3.342,8.304c0.797,2.996,1.219,6.117,1.225,9.297c0.004,2.323-0.215,4.675-0.673,7.035
				C170.733,234.945,170.638,235.389,170.536,235.83z"/>
		</g>
		<g>
			<path style="fill:#407BFF;" d="M170.536,235.83c-4.566,19.7-24.236,31.972-43.941,27.405c-2.692-0.624-5.245-1.53-7.635-2.681
				c-3.006-1.444-5.755-3.276-8.198-5.415c-2.182-1.909-4.119-4.066-5.78-6.413c-0.508-0.717-0.99-1.452-1.444-2.204
				c-1.999-3.301-3.479-6.917-4.359-10.715c-0.173-0.742-0.323-1.49-0.447-2.244c-0.768-4.606-0.661-9.438,0.459-14.269
				c0.102-0.441,0.214-0.881,0.336-1.318c5.116-18.927,24.347-30.551,43.605-26.087c4.739,1.098,9.048,3.071,12.795,5.707
				c0.724,0.51,1.427,1.043,2.108,1.602c2.977,2.435,5.534,5.313,7.596,8.509c0.454,0.704,0.885,1.423,1.29,2.157
				c1.442,2.61,2.569,5.398,3.342,8.304c0.797,2.996,1.219,6.117,1.225,9.297c0.004,2.323-0.215,4.675-0.673,7.035
				C170.733,234.945,170.638,235.389,170.536,235.83z"/>
		</g>
		<path style="opacity:0.6;" d="M163.046,235.475c0.136-0.728,0.241-1.459,0.317-2.186c0.352-3.296,0.133-6.561-0.589-9.672
			c-0.733-3.195-2.007-6.229-3.729-8.97c-0.443-0.71-0.917-1.4-1.416-2.065c-2.317-3.082-5.244-5.72-8.651-7.706
			c-0.837-0.482-1.703-0.933-2.585-1.337c-1.747-0.795-3.59-1.426-5.524-1.875c-15.288-3.542-30.6,5.647-34.795,20.605
			c0.089-0.438,0.179-0.876,0.278-1.316c3.643-15.718,19.402-25.547,35.121-21.904c15.724,3.646,25.547,19.402,21.904,35.121
			C163.276,234.609,163.162,235.047,163.046,235.475z"/>
		<g style="opacity:0.3;">
			<path d="M128.255,256.073c-0.345-0.076-0.677-0.16-1.01-0.254l-0.006-0.004c-0.343-0.092-0.677-0.186-1.012-0.289
				c-0.085-0.024-0.166-0.055-0.25-0.079c-0.362-0.114-0.716-0.238-1.065-0.359c-0.054-0.02-0.108-0.04-0.156-0.056
				c-1.151-0.419-2.26-0.91-3.326-1.465c-0.361-0.189-0.722-0.378-1.071-0.584c-0.706-0.401-1.387-0.826-2.048-1.281l-0.017-0.012
				c-0.213-0.146-0.427-0.302-0.636-0.454c-0.115-0.079-0.226-0.164-0.343-0.252c-0.169-0.124-0.333-0.254-0.492-0.38
				c-0.256-0.193-0.505-0.398-0.75-0.608c-0.319-0.262-0.631-0.535-0.935-0.82c-0.302-0.275-0.605-0.56-0.895-0.852
				c-0.24-0.241-0.475-0.479-0.707-0.732c-0.155-0.157-0.301-0.325-0.448-0.494c-0.124-0.128-0.24-0.267-0.36-0.4
				c-0.135-0.161-0.27-0.321-0.4-0.478c-0.213-0.257-0.422-0.519-0.627-0.787c-0.179-0.233-0.357-0.465-0.522-0.706
				c-0.04-0.053-0.08-0.106-0.12-0.158c-0.239-0.342-0.478-0.684-0.709-1.037c-0.216-0.326-0.418-0.66-0.622-1.003
				c-0.013-0.018-0.021-0.031-0.034-0.049c-0.123-0.203-0.242-0.412-0.355-0.616c-0.119-0.209-0.228-0.419-0.337-0.63
				c-0.107-0.201-0.215-0.402-0.318-0.608c-0.107-0.226-0.218-0.446-0.319-0.668c-0.1-0.212-0.195-0.43-0.296-0.652
				c-0.096-0.218-0.185-0.432-0.277-0.656c-0.189-0.451-0.364-0.911-0.528-1.387c-0.071-0.192-0.136-0.381-0.197-0.575
				c-0.162-0.467-0.3-0.943-0.429-1.42c-0.068-0.233-0.131-0.462-0.184-0.693c-0.187-0.738-0.335-1.483-0.464-2.231
				c-0.032-0.2-0.06-0.405-0.092-0.605c-0.063-0.45-0.121-0.895-0.165-1.349c-0.004-0.019-0.003-0.045-0.007-0.064
				c-0.044-0.453-0.078-0.909-0.097-1.361c-0.009-0.209-0.023-0.422-0.028-0.637c-0.004-0.105,0.001-0.211-0.003-0.315
				c-0.007-0.225-0.007-0.445-0.004-0.671c-0.002-0.035-0.003-0.07,0.001-0.101c-0.002-0.255,0.005-0.513,0.019-0.766
				c0.008-0.282,0.021-0.561,0.045-0.841c0.013-0.278,0.037-0.559,0.066-0.835c0.019-0.224,0.043-0.444,0.071-0.67
				c0.014-0.143,0.033-0.282,0.052-0.421c0.024-0.195,0.052-0.396,0.086-0.593c0.043-0.284,0.091-0.564,0.14-0.843
				c4.195-14.958,19.506-24.146,34.795-20.605c1.934,0.449,3.777,1.081,5.524,1.875c0.882,0.403,1.749,0.855,2.585,1.337
				c3.408,1.987,6.335,4.624,8.651,7.706c0.499,0.665,0.973,1.354,1.416,2.065c1.722,2.741,2.997,5.775,3.729,8.97
				c0.722,3.111,0.941,6.377,0.589,9.672c-0.076,0.726-0.181,1.458-0.317,2.186C158.851,250.433,143.539,259.621,128.255,256.073z"
				/>
		</g>
		<g>
			<g style="opacity:0.6;">
				<g>
					<path d="M135.079,244.658l-1.098,4.737L127.964,248l1.048-4.524c-4.208-1.245-8.081-3.357-10.275-5.529l4.945-6.589
						c2.431,2.317,5.939,4.255,9.225,5.016c2.859,0.663,4.022,0.303,4.259-0.722c0.87-3.755-16.348-4.553-13.766-15.692
						c1.118-4.823,5.557-8.066,12.783-7.425l1.078-4.652l6.017,1.395l-1.058,4.566c3.089,1.031,5.974,2.554,8.09,4.483l-4.721,6.595
						c-2.598-2.176-5.204-3.545-7.808-4.148c-2.945-0.682-4.081-0.047-4.319,0.978c-0.831,3.585,16.377,4.425,13.826,15.436
						C146.219,241.799,141.961,245.039,135.079,244.658z"/>
				</g>
			</g>
			<g>
				<g>
					<path style="fill:#407BFF;" d="M135.269,243.041l-1.098,4.737l-6.017-1.395l1.048-4.524c-4.208-1.245-8.081-3.357-10.275-5.529
						l4.945-6.589c2.431,2.317,5.939,4.255,9.225,5.016c2.859,0.663,4.022,0.303,4.259-0.722c0.87-3.755-16.348-4.553-13.766-15.692
						c1.118-4.823,5.557-8.066,12.783-7.425l1.078-4.652l6.017,1.395l-1.059,4.566c3.089,1.031,5.974,2.554,8.09,4.483l-4.721,6.595
						c-2.599-2.176-5.204-3.545-7.808-4.148c-2.945-0.682-4.081-0.047-4.319,0.977c-0.831,3.585,16.377,4.426,13.825,15.436
						C146.41,240.182,142.151,243.422,135.269,243.041z"/>
				</g>
			</g>
		</g>
	</g>
</g>
<g id="Arrows">
	<g>
		<g>
			<polygon style="fill:#407BFF;" points="420.098,351.684 430.878,362.464 360.413,432.93 378.805,432.93 440.078,371.664 
				451.218,382.794 455.698,347.204 			"/>
		</g>
		<g style="opacity:0.3;">
			<polygon style="fill:#FFFFFF;" points="420.098,351.684 430.878,362.464 360.413,432.93 378.805,432.93 440.078,371.664 
				451.218,382.794 455.698,347.204 			"/>
		</g>
	</g>
	<g>
		<g>
			<polygon style="fill:#407BFF;" points="149.627,320.065 160.407,330.845 58.322,432.93 76.71,432.93 169.607,340.045 
				180.747,351.175 185.227,315.585 			"/>
		</g>
		<g style="opacity:0.3;">
			<polygon style="fill:#FFFFFF;" points="149.627,320.065 160.407,330.845 58.322,432.93 76.71,432.93 169.607,340.045 
				180.747,351.175 185.227,315.585 			"/>
		</g>
	</g>
</g>
<g id="Gears">
	<g>
		<path style="fill:#407BFF;" d="M192.801,129.672l2.906-0.833l-1.853-6.461l-3.361,0.964c-0.956-1.08-2.161-1.933-3.525-2.47
			v-3.398h-6.721v3.398c-1.063,0.419-2.03,1.028-2.857,1.788l-2.957-1.442l-2.946,6.041l2.954,1.441
			c-0.019,0.242-0.032,0.485-0.032,0.732c0,1.628,0.427,3.157,1.172,4.485l-0.012-0.01l-2.213,2.77l5.251,4.195l2.153-2.695
			c0.897,0.293,1.854,0.453,2.848,0.453c0.724,0,1.428-0.087,2.105-0.246l1.938,2.728l5.48-3.891l-1.89-2.661
			C192.187,133.156,192.754,131.477,192.801,129.672z M177.564,129.432c0-3.333,2.712-6.045,6.045-6.045
			c3.333,0,6.045,2.712,6.045,6.045c0,3.333-2.712,6.045-6.045,6.045C180.275,135.476,177.564,132.765,177.564,129.432z"/>
		<path style="opacity:0.6;fill:#FFFFFF;" d="M192.801,129.672l2.906-0.833l-1.853-6.461l-3.361,0.964
			c-0.956-1.08-2.161-1.933-3.525-2.47v-3.398h-6.721v3.398c-1.063,0.419-2.03,1.028-2.857,1.788l-2.957-1.442l-2.946,6.041
			l2.954,1.441c-0.019,0.242-0.032,0.485-0.032,0.732c0,1.628,0.427,3.157,1.172,4.485l-0.012-0.01l-2.213,2.77l5.251,4.195
			l2.153-2.695c0.897,0.293,1.854,0.453,2.848,0.453c0.724,0,1.428-0.087,2.105-0.246l1.938,2.728l5.48-3.891l-1.89-2.661
			C192.187,133.156,192.754,131.477,192.801,129.672z M177.564,129.432c0-3.333,2.712-6.045,6.045-6.045
			c3.333,0,6.045,2.712,6.045,6.045c0,3.333-2.712,6.045-6.045,6.045C180.275,135.476,177.564,132.765,177.564,129.432z"/>
	</g>
	<g>
		<path style="fill:#407BFF;" d="M337.579,256.241l2.906-0.833l-1.853-6.461l-3.361,0.964c-0.956-1.08-2.161-1.933-3.525-2.47
			v-3.398h-6.721v3.398c-1.063,0.419-2.03,1.028-2.857,1.788l-2.957-1.442l-2.946,6.041l2.954,1.441
			c-0.019,0.242-0.032,0.485-0.032,0.732c0,1.628,0.427,3.157,1.172,4.485l-0.012-0.01l-2.213,2.77l5.251,4.195l2.153-2.695
			c0.897,0.293,1.854,0.453,2.848,0.453c0.724,0,1.428-0.087,2.105-0.246l1.938,2.728l5.48-3.892l-1.89-2.661
			C336.965,259.725,337.532,258.047,337.579,256.241z M322.342,256.001c0-3.333,2.712-6.045,6.045-6.045
			c3.333,0,6.045,2.712,6.045,6.045c0,3.333-2.712,6.045-6.045,6.045C325.053,262.046,322.342,259.334,322.342,256.001z"/>
		<path style="opacity:0.6;fill:#FFFFFF;" d="M337.579,256.241l2.906-0.833l-1.853-6.461l-3.361,0.964
			c-0.956-1.08-2.161-1.933-3.525-2.47v-3.398h-6.721v3.398c-1.063,0.419-2.03,1.028-2.857,1.788l-2.957-1.442l-2.946,6.041
			l2.954,1.441c-0.019,0.242-0.032,0.485-0.032,0.732c0,1.628,0.427,3.157,1.172,4.485l-0.012-0.01l-2.213,2.77l5.251,4.195
			l2.153-2.695c0.897,0.293,1.854,0.453,2.848,0.453c0.724,0,1.428-0.087,2.105-0.246l1.938,2.728l5.48-3.892l-1.89-2.661
			C336.965,259.725,337.532,258.047,337.579,256.241z M322.342,256.001c0-3.333,2.712-6.045,6.045-6.045
			c3.333,0,6.045,2.712,6.045,6.045c0,3.333-2.712,6.045-6.045,6.045C325.053,262.046,322.342,259.334,322.342,256.001z"/>
	</g>
</g>
<g id="Character">
	<g>
		<polygon style="fill:#407BFF;" points="408.5,257.18 404.02,292.77 393.47,282.22 289.2,386.48 181.92,386.48 135.46,432.93 
			117.08,432.93 176.53,373.48 283.82,373.48 384.27,273.02 372.91,261.66 		"/>
	</g>
	<g>
		<g>
			<g>
				<g>
					<g>
						<g>
							<g>
								<g>
									<polygon style="fill:#FF8B7B;" points="262.457,351.531 262.457,366.401 268.464,366.88 271.404,352.958 									"/>
								</g>
							</g>
						</g>
						<g>
							<g>
								<g>
									<path style="fill:#263238;" d="M266.719,365.48c0,0,1.888-3.625,3.003-3.238c1.115,0.387,1.568,4.785,1.568,4.785
										s6.053,2.024,7.744,2.131c1.691,0.106,3.06,1.065,3.277,4.368h-20.67c0,0,0.14-7.458,0.177-8.737
										c0.037-1.279,1.858,0.32,1.858,0.32L266.719,365.48z"/>
								</g>
							</g>
							<g>
								<g>
									<g>
										<path style="fill:#FFFFFF;" d="M261.87,367.623c1.446,0.882,2.124,2.635,1.123,4.358
											c-0.111,0.191,0.151,0.358,0.262,0.166c1.096-1.887,0.42-3.829-1.184-4.807
											C261.901,367.235,261.699,367.519,261.87,367.623L261.87,367.623z"/>
									</g>
								</g>
							</g>
							<g>
								<g>
									<g>
										<path style="fill:#FFFFFF;" d="M261.839,372.338c5.405,0.057,10.81,0.113,16.214,0.169
											c1.257,0.013,2.513,0.026,3.77,0.039c0.211,0.002,0.253-0.326,0.042-0.328c-5.405-0.057-10.809-0.113-16.214-0.169
											c-1.257-0.013-2.513-0.026-3.77-0.039C261.67,372.008,261.628,372.336,261.839,372.338L261.839,372.338z"/>
									</g>
								</g>
							</g>
							<g>
								<g>
									<g>
										<path style="fill:#FFFFFF;" d="M270.395,368.326c0.849-1.012,2.085-1.296,3.015-0.533
											c0.154,0.126,0.354-0.159,0.202-0.283c-1.066-0.873-2.516-0.497-3.48,0.651
											C269.988,368.333,270.252,368.497,270.395,368.326L270.395,368.326z"/>
									</g>
								</g>
							</g>
							<g>
								<g>
									<g>
										<path style="fill:#FFFFFF;" d="M272.107,368.864c0.849-1.012,2.085-1.296,3.016-0.533
											c0.154,0.126,0.354-0.159,0.202-0.283c-1.066-0.873-2.516-0.497-3.48,0.651C271.7,368.87,271.964,369.034,272.107,368.864
											L272.107,368.864z"/>
									</g>
								</g>
							</g>
							<g>
								<g>
									<g>
										<path style="fill:#FFFFFF;" d="M273.878,369.401c0.849-1.012,2.085-1.296,3.016-0.533
											c0.154,0.126,0.354-0.159,0.202-0.284c-1.066-0.873-2.516-0.496-3.479,0.651
											C273.471,369.408,273.734,369.572,273.878,369.401L273.878,369.401z"/>
									</g>
								</g>
							</g>
						</g>
					</g>
					<path style="fill:#263238;" d="M258.852,204.156c0.171,2.653-0.193,10.802,0.167,15.176c0.676,8.337,1.583,19.148,2.303,29.976
						c0.839,12.54,1.438,25.096,1.138,33.81c-0.77,22.375-0.599,73.081-0.599,73.081h9.706c0,0,11.401-50.398,13.533-73.081
						c1.78-18.805,0.836-67.252,0.536-78.962H258.852z"/>
					<path style="opacity:0.2;" d="M259.018,219.331c0.676,8.337,1.583,19.148,2.303,29.976c4.776-14.14,0.342-35.505,0.342-35.505
						L259.018,219.331z"/>
					<polygon style="fill:#407BFF;" points="261.016,356.543 272.407,356.543 273.243,352.909 260.72,352.758 					"/>
				</g>
				<g>
					<g>
						<g>
							<g>
								<g>
									<g>
										<polygon style="fill:#FF8B7B;" points="208.866,348.758 206.596,363.454 212.459,364.844 217.491,351.534 										"/>
									</g>
								</g>
							</g>
							<g>
								<g>
									<path style="fill:#263238;" d="M210.949,363.194c0,0,2.42-3.295,3.462-2.742c1.042,0.553,0.82,4.968,0.82,4.968
										s5.673,2.925,7.328,3.288c1.655,0.364,2.862,1.52,2.572,4.818l-20.428-3.155c0,0,1.276-7.35,1.509-8.607
										c0.232-1.258,1.787,0.599,1.787,0.599L210.949,363.194z"/>
								</g>
							</g>
							<g>
								<g>
									<g>
										<path style="fill:#FFFFFF;" d="M205.83,364.572c1.294,1.092,1.697,2.929,0.445,4.479
											c-0.139,0.172,0.094,0.377,0.234,0.204c1.371-1.697,0.999-3.72-0.436-4.932
											C205.919,364.194,205.677,364.443,205.83,364.572L205.83,364.572z"/>
									</g>
								</g>
							</g>
							<g>
								<g>
									<g>
										<path style="fill:#FFFFFF;" d="M205.079,369.227c5.333,0.881,10.666,1.762,15.998,2.642c1.24,0.205,2.48,0.41,3.719,0.614
											c0.208,0.035,0.3-0.283,0.092-0.318c-5.333-0.881-10.666-1.762-15.998-2.642c-1.24-0.205-2.48-0.41-3.719-0.614
											C204.963,368.875,204.871,369.192,205.079,369.227L205.079,369.227z"/>
									</g>
								</g>
							</g>
							<g>
								<g>
									<g>
										<path style="fill:#FFFFFF;" d="M214.147,366.568c0.994-0.87,2.258-0.963,3.062-0.067c0.133,0.148,0.374-0.103,0.243-0.249
											c-0.92-1.025-2.411-0.875-3.538,0.113C213.744,366.513,213.979,366.715,214.147,366.568L214.147,366.568z"/>
									</g>
								</g>
							</g>
							<g>
								<g>
									<g>
										<path style="fill:#FFFFFF;" d="M215.757,367.361c0.994-0.87,2.258-0.962,3.061-0.067c0.133,0.148,0.374-0.103,0.243-0.249
											c-0.92-1.025-2.411-0.875-3.538,0.112C215.354,367.305,215.589,367.508,215.757,367.361L215.757,367.361z"/>
									</g>
								</g>
							</g>
							<g>
								<g>
									<g>
										<path style="fill:#FFFFFF;" d="M217.425,368.162c0.994-0.87,2.258-0.962,3.061-0.067c0.133,0.148,0.374-0.103,0.243-0.249
											c-0.92-1.025-2.411-0.875-3.538,0.113C217.022,368.107,217.257,368.309,217.425,368.162L217.425,368.162z"/>
									</g>
								</g>
							</g>
						</g>
					</g>
					<path style="fill:#263238;" d="M243.052,285.077c-5.998,21.975-26.165,69.504-26.165,69.504l-9.565-1.666
						c0,0,9.962-49.453,14.553-71.359c4.144-19.771,8.694-65.18,10.164-78.7l32.103,2.89
						C262.431,217.329,248.029,266.848,243.052,285.077L243.052,285.077z"/>
					<polygon style="fill:#407BFF;" points="206.433,353.114 217.656,355.068 219.102,351.632 206.596,349.348 					"/>
				</g>
				<path style="fill:#FFFFFF;" d="M230.168,202.857c-0.126,1.417,2.751,4.583,4.163,4.643l49.834,0.867
					c1.498,0.068,3.253-0.961,3.21-2.459c-0.514-17.667-4.631-78.446-6.017-82.281c-1.712-4.708-11.187-6.402-15.33-6.779
					c-5.966-0.548-12.856-0.368-19.635-0.043c-3.193,0.154-6.103,0.437-8.517,0.736c-3.672,0.454-6.24,3.86-5.649,7.507
					c1.113,6.882,1.772,13.747,2.106,20.423c0.017,0.334,0.034,0.659,0.051,0.984c0.111,2.303,0.214,4.579,0.222,6.822
					c0.009,0.445,0.017,0.899,0.009,1.344C234.391,177.501,231.424,188.708,230.168,202.857z"/>
				<path style="fill:#407BFF;" d="M250.008,208.6c-6.66,0.41-24.29,0-24.29-2.78c0-4.64,6.34-36.73,6.94-43.15
					c0.09-0.98,0.18-2.31,0.28-3.9c0.17-2.95,0.34-6.79,0.5-10.91c0.49-12.84,0.89-28.44,0.89-28.44s0.39-3.53,15.89-2.78
					c0,0,3.86,18.84,4,35.42C254.348,168.64,252.268,208.46,250.008,208.6z"/>
				<path style="fill:#407BFF;" d="M266.027,116.848c0,0,6.832,18.07,6.08,45.444c-0.752,27.375-1.092,47.301-1.092,47.301
					s16.36,1.018,17.79-1.429c0.779-1.334-1.12-25.204-2.196-39.196c-1.225-15.927-3.695-42.084-4.627-45.23
					C280.374,118.305,266.027,116.848,266.027,116.848z"/>
				<path style="fill:#407BFF;" d="M347.078,112.37c-4.8,4.22-9.7,8.27-14.77,12.17c-2.52,1.96-5.1,3.86-7.73,5.75
					c-1.32,0.94-2.66,1.85-4.05,2.77c-1.42,0.91-2.79,1.81-4.55,2.72c-0.82,0.45-2.21,1.01-3.41,1.3c-1.15,0.27-2.22,0.44-3.2,0.53
					c-1.98,0.2-3.78,0.22-5.54,0.17c-3.5-0.14-6.83-0.47-10.1-0.96c-2.83-0.41-5.6-0.91-8.35-1.48c-0.64-0.13-1.27-0.27-1.91-0.41
					c-2.97-0.65-5.92-1.4-8.9-2.24l2.94-12.99c3.32,1.26,6.4,1.88,9.38,2.51c2.99,0.67,5.98,1.3,8.95,1.85
					c2.96,0.53,5.91,1.04,8.71,1.29c1.39,0.13,2.76,0.22,3.93,0.19c0.59-0.01,1.09-0.06,1.49-0.11c0.34-0.06,0.45-0.04,1.04-0.28
					c1.11-0.44,2.47-1.12,3.78-1.8c1.33-0.69,2.67-1.45,4.02-2.19c2.71-1.48,5.41-3.07,8.13-4.62c5.42-3.15,10.91-6.31,16.4-9.41
					L347.078,112.37z"/>
				<path style="opacity:0.2;" d="M285.378,135.34c-0.64-0.13-1.27-0.27-1.91-0.41l-0.97-7.1L285.378,135.34z"/>
				<g>
					<g>
						<path style="fill:#FF8B7B;" d="M354.821,99.947c0,0,0.892,2.944,0.232,4.507c-0.66,1.563-3.781,2.339-3.781,2.339
							S353.028,101.996,354.821,99.947z"/>
						<path style="opacity:0.2;" d="M354.821,99.947c0,0,0.892,2.944,0.232,4.507c-0.66,1.563-3.781,2.339-3.781,2.339
							S353.028,101.996,354.821,99.947z"/>
						<g>
							<path style="fill:#FF8B7B;" d="M354.494,102.765c-1.089,0.813-1.918,2.222-2.795,3.681c1.479,0.496,3.877-0.709,4.422-0.11
								c0.518,0.554-0.958,1.625-3.414,2.821c-1.268,0.618-1.708,2.063-3.396,2.656c-1.688,0.531-2.236,0.585-2.236,0.585
								c-1.854-0.698-3.868-5.272-3.868-5.272l4.443-3.399c0,0,4.087-3.105,5.819-3.726c1.721-0.622,6.238-3.562,6.55-2.812
								C360.459,98.242,357.395,100.624,354.494,102.765z"/>
						</g>
					</g>
				</g>
				<path style="opacity:0.2;" d="M241.788,136.85l-8.85,21.92c0.17-2.95,0.34-6.79,0.5-10.91L241.788,136.85z"/>
				<g>
					<g>
						<g>
							<g>
								<g>
									<path style="fill:#263238;" d="M266.588,82.643c-3.664-0.899-7.578-0.344-10.732,1.727
										c-2.059,1.352-3.773,3.277-3.464,5.873c0.722,6.058,3.44,16.038,3.44,16.038l19.519-11.912c0,0,2.905-3.558-1.624-8.302
										C272.271,84.54,269.297,83.308,266.588,82.643z"/>
									<g>
										<path style="fill:#FF8B7B;" d="M264.769,120.296c-0.118-0.544-0.205-1.111-0.245-1.693c-0.05-0.69-0.036-1.4,0.046-2.113
											l0.949-3.488c0.012-0.027,0.018-0.045,0.03-0.073l-0.001-0.008l-5.668-6.205l-3.902-4.281
											c0.225,4.501-1.15,9.998-2.778,14.696C253.459,119.225,263.29,124.83,264.769,120.296z"/>
									</g>
									<g style="opacity:0.2;">
										<path d="M265.519,113.002l-0.949,3.488c-2.149-1-4.39-3.138-4.889-5.436c-0.349-1.659,0.408-3.202,1.077-3.282
											L265.519,113.002z"/>
									</g>
									<g>
										<path style="fill:#FF8B7B;" d="M274.296,105.747c-0.209,0.758-0.443,1.505-0.692,2.242
											c-2.222,6.502-10.268,7.034-15.234,2.195c-0.007-0.01-0.007-0.018-0.015-0.019c-0.44-0.43-0.858-0.9-1.245-1.419
											c-3.148-4.205-2.326-7.412-1.792-14.705c0.533-7.285,8.362-11.781,14.949-8.001
											C276.345,89.529,276.403,98.164,274.296,105.747z"/>
									</g>
									<path style="fill:#263238;" d="M260.788,89.347c0,0,7.067,5.294,15.259,2.886c4.167-1.224,3.466-9.753,0.193-11.407
										c-2.672-1.351-4.843,1.929-4.843,1.929s-3.26-2.121-8.759-1.881c-5.499,0.24-7.776,3.41-7.776,3.41
										s-2.835-0.154-3.669,2.667c-0.741,2.507,2.006,7.303,2.006,7.303L260.788,89.347z"/>
									<g>
										<path style="fill:#263238;" d="M266.969,97.907c-0.077,0.57,0.162,1.073,0.535,1.124c0.373,0.05,0.737-0.371,0.815-0.941
											s-0.162-1.073-0.535-1.124C267.411,96.916,267.046,97.337,266.969,97.907"/>
									</g>
									<g>
										<path style="fill:#263238;" d="M269.691,106.948c0.121,0,0.192-0.006,0.197-0.007c0.12-0.012,0.207-0.118,0.196-0.238
											c-0.012-0.119-0.117-0.205-0.238-0.196c-0.117,0.012-2.982,0.249-3.411-3.001c-0.015-0.119-0.128-0.206-0.244-0.188
											c-0.12,0.016-0.203,0.126-0.188,0.245C266.417,106.717,268.958,106.948,269.691,106.948z"/>
									</g>
									<path style="fill:#263238;" d="M255.232,94.721c0,0,2.2,0.117,2.283,2.002c0.083,1.885-0.114,2.132-0.114,2.132
										l2.672,0.181c0,0-1.508-5.624,0.386-5.524c1.893,0.1-0.867-4.052,1.742-4.791c2.792-0.791,10.008-1.119,12.809,3.301
										c0,0-0.725-4.351-4.186-6.711c-3.461-2.36-10.446-2.888-13.287,0.53C254.695,89.257,255.232,94.721,255.232,94.721z"/>
									<g>
										<path style="fill:#FF8B7B;" d="M251.561,98.444c0.278,1.951,1.432,3.591,2.742,4.542c1.972,1.43,3.801-0.129,3.959-2.432
											c0.143-2.072-0.711-5.314-3.03-5.833C252.948,94.21,251.242,96.214,251.561,98.444"/>
									</g>
									<g>
										<path style="fill:#263238;" d="M272.867,98.589c-0.077,0.57,0.162,1.073,0.535,1.124c0.373,0.05,0.737-0.371,0.815-0.941
											c0.077-0.57-0.162-1.073-0.535-1.124C273.309,97.598,272.944,98.019,272.867,98.589"/>
									</g>
								</g>
								<g>
									<path style="fill:#263238;" d="M274.974,97.201c-0.099-0.021-0.184-0.093-0.217-0.196c-0.147-0.462-0.39-0.781-0.723-0.948
										c-0.548-0.275-1.185-0.067-1.191-0.064c-0.147,0.052-0.316-0.027-0.368-0.179c-0.052-0.151,0.028-0.317,0.179-0.369
										c0.034-0.012,0.87-0.293,1.64,0.094c0.478,0.24,0.82,0.674,1.015,1.291c0.049,0.153-0.035,0.316-0.188,0.365
										C275.072,97.21,275.021,97.211,274.974,97.201z"/>
								</g>
								<g>
									<path style="fill:#263238;" d="M265.494,96.289c-0.043,0.001-0.086-0.007-0.128-0.025
										c-0.146-0.065-0.212-0.235-0.148-0.381c0.015-0.034,0.377-0.836,1.186-1.138c0.501-0.187,1.052-0.142,1.637,0.135
										c0.145,0.068,0.208,0.241,0.139,0.386c-0.069,0.145-0.242,0.207-0.386,0.138c-0.437-0.206-0.834-0.246-1.183-0.117
										c-0.578,0.213-0.859,0.825-0.862,0.831C265.702,96.222,265.601,96.285,265.494,96.289z"/>
								</g>
								<g>
									<path style="fill:#FF5652;" d="M270.262,98.68c0,0,1.64,3.871,1.774,4.854c0.091,0.672-2.044,0.656-2.044,0.656
										L270.262,98.68z"/>
								</g>
							</g>
						</g>
						<g>
							<g>
								<path d="M264.957,115.798c-0.002-0.007-0.003-0.011-0.003-0.013c0.002-0.002,0.005,0.003,0.01,0.013H264.957z"/>
							</g>
						</g>
					</g>
				</g>
			</g>
			<g>
				<path style="fill:#407BFF;" d="M232.75,120.979c-3.368,5.862-6.537,11.843-9.633,17.852c-1.562,2.996-3.065,6.026-4.6,9.025
					l-2.249,4.505l-1.116,2.199l-0.559,1.068l-0.265,0.502c-0.087,0.174-0.118,0.255-0.177,0.388L214,156.875l-0.107,0.287
					c-0.076,0.202-0.134,0.376-0.182,0.531l-0.144,0.47c-0.334,1.173-0.516,2.102-0.697,3.042c-0.175,0.929-0.322,1.824-0.459,2.71
					c-0.273,1.77-0.504,3.498-0.694,5.226c-0.388,3.449-0.724,6.861-0.976,10.279c-0.527,6.831-0.889,13.63-0.972,20.491
					c-0.026,2.12,1.672,3.859,3.792,3.885c1.816,0.022,3.352-1.22,3.772-2.909l0.005-0.024c1.635-6.572,3.116-13.19,4.605-19.75
					c0.762-3.277,1.483-6.553,2.267-9.773c0.399-1.606,0.781-3.207,1.19-4.754c0.204-0.772,0.415-1.532,0.631-2.249
					c0.212-0.706,0.447-1.42,0.639-1.856c0.025-0.064,0.044-0.093,0.062-0.13c0.021-0.046,0.036-0.069,0.041-0.063l0.01-0.008
					l-0.02,0.07l-0.041,0.101c-0.034,0.076-0.072,0.151-0.113,0.223c-0.077,0.13,0.016-0.02,0.033-0.044l0.099-0.154l0.198-0.31
					l0.392-0.616l1.38-2.224l2.675-4.378c1.734-2.931,3.477-5.843,5.159-8.79c3.389-5.88,6.68-11.801,9.758-17.848
					c1.931-3.793,0.421-8.433-3.371-10.363c-3.67-1.868-8.134-0.515-10.168,3.011L232.75,120.979z"/>
				<g>
					<g>
						<path style="fill:#263238;" d="M201.197,218.949v-6.264c0-0.217,0.177-0.393,0.394-0.393h3.399v-1.011h-3.399
							c-0.775,0-1.405,0.63-1.405,1.405v6.264H201.197z"/>
					</g>
					<g>
						<path style="fill:#263238;" d="M224.71,212.685v6.264h1.011v-6.264c0-0.775-0.63-1.405-1.405-1.405h-3.399v1.011h3.399
							C224.534,212.291,224.71,212.468,224.71,212.685z"/>
					</g>
					<g>
						<g>
							<path style="fill:#263238;" d="M239.054,221.599v31.604c0,1.466-1.193,2.66-2.66,2.66h-45.611c-1.466,0-2.66-1.193-2.66-2.66
								v-31.604c0-1.466,1.193-2.65,2.66-2.65h45.611C237.86,218.949,239.054,220.132,239.054,221.599z"/>
						</g>
						<g style="opacity:0.5;">
							<path style="fill:#FFFFFF;" d="M239.054,221.599v31.604c0,1.466-1.193,2.66-2.66,2.66h-45.611c-1.466,0-2.66-1.193-2.66-2.66
								v-31.604c0-1.466,1.193-2.65,2.66-2.65h45.611C237.86,218.949,239.054,220.132,239.054,221.599z"/>
						</g>
						<g>
							<rect x="230.336" y="218.949" style="fill:#263238;" width="2.023" height="36.913"/>
							<rect x="194.818" y="218.949" style="fill:#263238;" width="2.023" height="36.913"/>
						</g>
					</g>
					<path style="fill:#FF8B7B;" d="M216.64,202.219c0,0,3.262,7.358,2.896,9.024c-0.366,1.667-2.567-1.409-2.567-1.409
						L216.64,202.219z"/>
					<rect x="203.586" y="210.1" style="fill:#263238;" width="18.372" height="3.371"/>
					<rect x="203.586" y="210.1" style="opacity:0.3;fill:#FFFFFF;" width="18.372" height="3.371"/>
					<path style="fill:#FF8B7B;" d="M209.945,201.103l-2.547,7.493c-0.51,2.149,6.409,5.279,9.085,3.43
						c2.11-1.458,0.283-10.159,0.283-10.159C214.549,200.488,212.465,200.237,209.945,201.103z"/>
					<path style="fill:#FF8B7B;" d="M207.398,208.595c-0.528,2.394-0.221,7.077,3.598,7.561c1.711,0.217,2.528,0.057,2.528,0.057
						s1.283,0.554,2.379,0.201c1.917-0.618,1.204-5.449,1.204-5.449L207.398,208.595z"/>
				</g>
			</g>
		</g>
		<path style="fill:#407BFF;" d="M254.351,113.489c0,0-5.436-1.16-6.624,3.359v14.933l3.129,3.905l-2.466,2.466l-0.069,19.183
			l5.782,1.986c0.114-5.343,0.988-14.918-0.347-29.094C252.913,121.276,254.351,113.489,254.351,113.489z"/>
		<path style="opacity:0.3;" d="M254.351,113.489c0,0-5.436-1.16-6.624,3.359v14.933l3.129,3.905l-2.466,2.466l-0.069,19.183
			l5.782,1.986c0.114-5.343,0.988-14.918-0.347-29.094C252.913,121.276,254.351,113.489,254.351,113.489z"/>
		<path style="fill:#407BFF;" d="M264.569,116.489c0,0,2.55,2.59,3.823,8.508c1.273,5.919,3.833,31.811,3.759,35.102l5.72-4.295
			l-2.321-20.553l-3.39-2.101l2.85-3.745c0,0-2.617-9.441-4.308-11.845c-1.691-2.405-5.602-3.023-5.602-3.023L264.569,116.489z"/>
		<path style="opacity:0.3;" d="M264.569,116.489c0,0,2.55,2.59,3.823,8.508c1.273,5.919,3.833,31.811,3.759,35.102l5.72-4.295
			l-2.321-20.553l-3.39-2.101l2.85-3.745c0,0-2.617-9.441-4.308-11.845c-1.691-2.405-5.602-3.023-5.602-3.023L264.569,116.489z"/>
	</g>
</g>
</svg>
