<?xml version="1.0" encoding="utf-8"?>
<!-- Generator: Adobe Illustrator 27.5.0, SVG Export Plug-In . SVG Version: 6.00 Build 0)  -->
<svg version="1.1" xmlns="http://www.w3.org/2000/svg" xmlns:xlink="http://www.w3.org/1999/xlink" x="0px" y="0px"
	 viewBox="0 0 500 500" style="enable-background:new 0 0 500 500;" xml:space="preserve">
<g id="BACKGROUND">
	<rect style="fill:#FFFFFF;" width="500" height="500"/>
</g>
<g id="OBJECTS">
	<path style="fill:#CEDDFF;" d="M105.645,437.455h288.71c37.569-37.191,60.849-88.789,60.849-145.83
		c0-113.331-91.873-205.204-205.204-205.204S44.796,178.294,44.796,291.625C44.796,348.665,68.076,400.263,105.645,437.455z"/>
	<g>
		<g>
			<path style="fill:#FFFFFF;" d="M448.017,365.302h-43.184c-1.954,0-3.538,1.584-3.538,3.538v7.57c0,1.954,1.584,3.538,3.538,3.538
				h43.184V365.302z"/>
			<rect x="405.491" y="368.483" style="fill:#CEDDFF;" width="42.525" height="1"/>
			<rect x="401.295" y="373.263" style="fill:#CEDDFF;" width="29.595" height="1"/>
			<rect x="418.707" y="375.526" style="fill:#CEDDFF;" width="29.309" height="1"/>
			<path style="fill:#170044;" d="M412.358,379.948c-1.954,0-3.538-1.584-3.538-3.538v-7.57c0-1.954,1.584-3.538,3.538-3.538h39.983
				v-4.188H239.13c-3.071,0-5.561,2.49-5.561,5.561v11.899c0,3.071,2.49,5.561,5.561,5.561h213.211v-4.188H412.358z"/>
			<path style="fill:#534084;" d="M409.985,384.636c-3.342,0-6.06-2.719-6.06-6.061v-11.899c0-3.343,2.719-6.061,6.06-6.061v1
				c-2.79,0-5.06,2.27-5.06,5.061v11.899c0,2.79,2.271,5.061,5.06,5.061V384.636z"/>
			<g>
				<path style="fill:#FFFFFF;" d="M312.165,369.135c0.664,0.352,1.179,0.846,1.542,1.481c0.364,0.637,0.547,1.37,0.547,2.202
					c0,0.824-0.183,1.557-0.547,2.196c-0.363,0.64-0.88,1.136-1.548,1.488c-0.668,0.352-1.441,0.527-2.321,0.527h-3.156v-8.424
					h3.156C310.726,368.607,311.501,368.782,312.165,369.135z M311.518,374.618c0.432-0.424,0.648-1.023,0.648-1.8
					c0-0.775-0.216-1.38-0.648-1.812c-0.432-0.433-1.036-0.648-1.813-0.648h-0.972v4.897h0.972
					C310.482,375.255,311.086,375.043,311.518,374.618z"/>
				<path style="fill:#FFFFFF;" d="M317.457,368.607v8.424h-2.052v-8.424H317.457z"/>
				<path style="fill:#FFFFFF;" d="M319.137,370.58c0.36-0.651,0.862-1.159,1.507-1.523c0.643-0.364,1.374-0.546,2.189-0.546
					c1,0,1.857,0.264,2.568,0.792c0.712,0.527,1.188,1.248,1.428,2.16h-2.256c-0.168-0.353-0.406-0.62-0.714-0.805
					c-0.309-0.184-0.658-0.275-1.05-0.275c-0.633,0-1.145,0.22-1.536,0.66c-0.393,0.439-0.588,1.027-0.588,1.764
					c0,0.736,0.195,1.324,0.588,1.764c0.392,0.44,0.903,0.66,1.536,0.66c0.392,0,0.741-0.092,1.05-0.276
					c0.308-0.184,0.546-0.451,0.714-0.804h2.256c-0.24,0.912-0.716,1.63-1.428,2.154c-0.712,0.523-1.568,0.786-2.568,0.786
					c-0.815,0-1.546-0.183-2.189-0.546c-0.645-0.364-1.146-0.87-1.507-1.519c-0.359-0.647-0.539-1.388-0.539-2.22
					C318.598,371.975,318.778,371.233,319.137,370.58z"/>
				<path style="fill:#FFFFFF;" d="M334.15,368.607v1.645h-2.231v6.779h-2.053v-6.779h-2.232v-1.645H334.15z"/>
				<path style="fill:#FFFFFF;" d="M337.234,368.607v8.424h-2.052v-8.424H337.234z"/>
				<path style="fill:#FFFFFF;" d="M340.528,376.563c-0.66-0.368-1.184-0.882-1.572-1.542c-0.388-0.66-0.581-1.402-0.581-2.226
					c0-0.824,0.193-1.564,0.581-2.221c0.389-0.655,0.912-1.168,1.572-1.536c0.66-0.367,1.386-0.552,2.178-0.552
					c0.792,0,1.519,0.184,2.179,0.552c0.66,0.368,1.18,0.881,1.56,1.536c0.38,0.656,0.57,1.396,0.57,2.221
					c0,0.823-0.192,1.565-0.576,2.226c-0.384,0.66-0.904,1.174-1.56,1.542c-0.656,0.368-1.381,0.552-2.173,0.552
					C341.913,377.114,341.188,376.931,340.528,376.563z M344.32,374.57c0.404-0.447,0.606-1.04,0.606-1.775
					c0-0.744-0.202-1.339-0.606-1.782c-0.404-0.444-0.941-0.666-1.614-0.666c-0.68,0-1.222,0.22-1.626,0.66
					c-0.403,0.439-0.605,1.036-0.605,1.788c0,0.743,0.202,1.338,0.605,1.781c0.404,0.444,0.946,0.666,1.626,0.666
					C343.378,375.242,343.915,375.019,344.32,374.57z"/>
				<path style="fill:#FFFFFF;" d="M355.69,377.03h-2.053l-3.432-5.195v5.195h-2.052v-8.424h2.052l3.432,5.22v-5.22h2.053V377.03z"
					/>
				<path style="fill:#FFFFFF;" d="M362.421,375.543h-3.145l-0.504,1.487h-2.147l3.048-8.424h2.376l3.048,8.424h-2.172
					L362.421,375.543z M361.893,373.959l-1.044-3.084l-1.032,3.084H361.893z"/>
				<path style="fill:#FFFFFF;" d="M370.318,377.03l-1.752-3.18h-0.492v3.18h-2.052v-8.424h3.444c0.663,0,1.229,0.116,1.697,0.348
					c0.468,0.232,0.818,0.551,1.05,0.954c0.232,0.404,0.349,0.854,0.349,1.351c0,0.56-0.158,1.06-0.475,1.5
					c-0.315,0.439-0.781,0.752-1.397,0.936l1.944,3.336H370.318z M368.073,372.399h1.272c0.376,0,0.657-0.092,0.846-0.276
					c0.188-0.184,0.282-0.443,0.282-0.779c0-0.32-0.095-0.572-0.282-0.756c-0.188-0.185-0.47-0.276-0.846-0.276h-1.272V372.399z"/>
				<path style="fill:#FFFFFF;" d="M381.069,368.607l-2.916,5.64v2.784h-2.052v-2.784l-2.916-5.64h2.328l1.632,3.528l1.62-3.528
					H381.069z"/>
			</g>
		</g>
		<g>
			<path style="fill:#FCBC1D;" d="M455.963,331.243H245.004c-1.111,0-2.012-0.901-2.012-2.012v-16.115
				c0-1.111,0.901-2.012,2.012-2.012h210.959c1.111,0,2.012,0.901,2.012,2.012v16.115
				C457.975,330.342,457.074,331.243,455.963,331.243z"/>
			<g>
				<path style="fill:#FFFFFF;" d="M303.311,321.103c0,0.518-0.128,0.901-0.386,1.15c-0.257,0.249-0.541,0.373-0.853,0.373h-2.996
					c0,0.236,0.139,0.434,0.417,0.594c0.278,0.16,0.557,0.24,0.835,0.24c0.488,0,0.872-0.05,1.15-0.151l0.139-0.051
					c0.203-0.093,0.371-0.139,0.506-0.139c0.27,0,0.502,0.189,0.695,0.568c0.109,0.228,0.165,0.422,0.165,0.582
					c0,0.75-0.898,1.125-2.693,1.125c-0.624,0-1.179-0.108-1.663-0.322c-0.484-0.215-0.861-0.499-1.132-0.853
					c-0.53-0.683-0.796-1.445-0.796-2.288c0-1.063,0.343-1.912,1.03-2.548c0.687-0.637,1.545-0.955,2.573-0.955
					c1.172,0,2.031,0.413,2.579,1.239C303.168,320.106,303.311,320.584,303.311,321.103z M300.643,321.476
					c0.32,0,0.48-0.135,0.48-0.405c0-0.193-0.073-0.35-0.221-0.468c-0.147-0.118-0.358-0.177-0.633-0.177
					c-0.273,0-0.546,0.111-0.815,0.335c-0.27,0.224-0.404,0.462-0.404,0.715H300.643z"/>
				<path style="fill:#FFFFFF;" d="M307.838,318.568c0.843,0,1.544,0.322,2.104,0.967c0.561,0.645,0.841,1.431,0.841,2.358v2.226
					c0,0.193-0.006,0.339-0.018,0.436c-0.013,0.098-0.049,0.205-0.107,0.322c-0.118,0.229-0.447,0.342-0.986,0.342
					c-0.599,0-0.944-0.156-1.037-0.468c-0.05-0.143-0.075-0.358-0.075-0.645v-2.226c0-0.346-0.1-0.615-0.298-0.81
					c-0.198-0.193-0.463-0.291-0.796-0.291c-0.333,0-0.603,0.102-0.81,0.304c-0.207,0.202-0.31,0.468-0.31,0.797v2.238
					c0,0.193-0.007,0.339-0.02,0.436c-0.013,0.098-0.053,0.205-0.12,0.322c-0.109,0.229-0.434,0.342-0.974,0.342
					c-0.53,0-0.855-0.113-0.974-0.342c-0.059-0.126-0.095-0.237-0.107-0.335c-0.013-0.097-0.019-0.242-0.019-0.436v-4.477
					c0-0.185,0.006-0.326,0.019-0.424c0.013-0.097,0.053-0.204,0.12-0.322c0.118-0.21,0.443-0.315,0.974-0.315
					c0.515,0,0.83,0.097,0.948,0.29c0.085,0.144,0.127,0.316,0.127,0.519c0.033-0.059,0.109-0.143,0.228-0.253
					c0.118-0.109,0.231-0.197,0.342-0.266C307.176,318.664,307.492,318.568,307.838,318.568z"/>
				<path style="fill:#FFFFFF;" d="M316.018,324.396c-0.32,0.422-0.83,0.633-1.529,0.633c-0.7,0-1.355-0.322-1.967-0.968
					c-0.611-0.645-0.916-1.396-0.916-2.257c0-0.859,0.308-1.614,0.923-2.263c0.615-0.649,1.29-0.974,2.023-0.974
					c0.286,0,0.548,0.053,0.783,0.157c0.236,0.105,0.398,0.203,0.487,0.291c0.088,0.089,0.158,0.171,0.208,0.247
					c0.025-0.236,0.112-0.415,0.26-0.538c0.147-0.122,0.386-0.183,0.714-0.183c0.329,0,0.569,0.025,0.721,0.075
					c0.152,0.051,0.26,0.138,0.323,0.26c0.063,0.122,0.101,0.229,0.113,0.322c0.013,0.093,0.02,0.236,0.02,0.43v5.235
					c0,0.969-0.338,1.751-1.012,2.345c-0.675,0.595-1.434,0.892-2.276,0.892c-0.641,0-1.252-0.156-1.833-0.468
					c-0.582-0.311-0.873-0.594-0.873-0.847c0-0.329,0.127-0.62,0.38-0.873c0.16-0.177,0.284-0.299,0.373-0.366
					c0.088-0.067,0.191-0.102,0.31-0.102c0.118,0,0.24,0.051,0.366,0.151c0.405,0.313,0.843,0.469,1.315,0.469
					c0.32,0,0.582-0.127,0.784-0.38c0.202-0.253,0.303-0.557,0.303-0.91V324.396z M313.768,321.811c0,0.273,0.107,0.521,0.322,0.739
					c0.215,0.22,0.476,0.329,0.784,0.329c0.308,0,0.563-0.112,0.765-0.335c0.202-0.224,0.304-0.468,0.304-0.733
					c0-0.266-0.098-0.515-0.291-0.746c-0.194-0.232-0.455-0.348-0.784-0.348c-0.328,0-0.594,0.113-0.796,0.341
					C313.868,321.285,313.768,321.536,313.768,321.811z"/>
				<path style="fill:#FFFFFF;" d="M319.193,316.544c0-0.194,0.006-0.339,0.019-0.437c0.013-0.097,0.049-0.208,0.107-0.335
					c0.118-0.228,0.447-0.342,0.986-0.342c0.515,0,0.835,0.114,0.961,0.342c0.067,0.127,0.107,0.24,0.12,0.342
					c0.013,0.101,0.02,0.248,0.02,0.442v5.854c0,0.303,0.025,0.495,0.075,0.575c0.051,0.08,0.163,0.12,0.336,0.12
					c0.172,0,0.288,0.006,0.348,0.018c0.059,0.013,0.13,0.049,0.215,0.107c0.168,0.11,0.253,0.409,0.253,0.898
					c0,0.53-0.085,0.855-0.253,0.974c-0.22,0.151-0.742,0.177-1.568,0.075c-0.649-0.084-1.07-0.299-1.265-0.645
					c-0.235-0.413-0.354-1.07-0.354-1.973V316.544z"/>
				<path style="fill:#FFFFFF;" d="M325.406,317.334c-0.064,0.122-0.175,0.209-0.335,0.26c-0.16,0.05-0.373,0.075-0.639,0.075
					c-0.266,0-0.479-0.025-0.639-0.075c-0.16-0.051-0.271-0.14-0.335-0.266c-0.064-0.127-0.102-0.238-0.114-0.335
					c-0.013-0.098-0.019-0.243-0.019-0.436c0-0.194,0.006-0.34,0.019-0.437c0.013-0.097,0.049-0.204,0.107-0.322
					c0.118-0.228,0.447-0.342,0.986-0.342c0.531,0,0.852,0.114,0.961,0.342c0.067,0.126,0.108,0.238,0.12,0.335
					c0.013,0.097,0.02,0.242,0.02,0.437c0,0.193-0.007,0.339-0.02,0.436C325.507,317.103,325.47,317.212,325.406,317.334z
					 M323.326,319.68c0-0.194,0.006-0.339,0.019-0.437c0.013-0.097,0.049-0.208,0.107-0.335c0.118-0.219,0.447-0.329,0.986-0.329
					c0.405,0,0.691,0.072,0.86,0.216c0.142,0.118,0.219,0.299,0.228,0.543c0.008,0.085,0.013,0.207,0.013,0.367v4.426
					c0,0.193-0.007,0.339-0.02,0.435c-0.013,0.098-0.053,0.209-0.12,0.335c-0.109,0.22-0.434,0.329-0.974,0.329
					c-0.53,0-0.855-0.114-0.974-0.342c-0.059-0.126-0.095-0.235-0.107-0.328c-0.013-0.093-0.019-0.24-0.019-0.442V319.68z"/>
				<path style="fill:#FFFFFF;" d="M326.602,324.636c-0.16-0.101-0.24-0.261-0.24-0.48c0-0.219,0.16-0.552,0.48-0.998
					c0.093-0.144,0.242-0.216,0.448-0.216c0.207,0,0.487,0.104,0.841,0.311c0.354,0.206,0.675,0.31,0.961,0.31
					c0.515,0,0.771-0.102,0.771-0.304c0-0.16-0.282-0.278-0.847-0.354c-0.531-0.076-1.059-0.274-1.581-0.595
					c-0.244-0.151-0.446-0.39-0.606-0.714c-0.16-0.325-0.24-0.711-0.24-1.157c0-1.332,0.914-1.998,2.743-1.998
					c0.599,0,1.214,0.143,1.847,0.43c0.295,0.135,0.442,0.304,0.442,0.506s-0.093,0.451-0.278,0.746
					c-0.185,0.295-0.375,0.442-0.569,0.442c-0.101,0-0.288-0.063-0.563-0.19c-0.273-0.126-0.571-0.189-0.892-0.189
					c-0.497,0-0.745,0.093-0.745,0.278c0,0.253,0.286,0.417,0.859,0.493c0.557,0.058,1.096,0.219,1.618,0.48
					c0.245,0.118,0.449,0.322,0.613,0.613c0.165,0.29,0.247,0.655,0.247,1.094c0,0.438-0.082,0.811-0.247,1.118
					c-0.164,0.309-0.394,0.538-0.689,0.69c-0.54,0.262-1.217,0.393-2.029,0.393C328.133,325.345,327.352,325.108,326.602,324.636z"
					/>
				<path style="fill:#FFFFFF;" d="M336.426,318.592c0.843,0,1.544,0.321,2.104,0.961c0.561,0.642,0.841,1.425,0.841,2.353v2.226
					c0,0.193-0.006,0.339-0.018,0.435c-0.013,0.098-0.053,0.209-0.12,0.335c-0.109,0.22-0.435,0.329-0.974,0.329
					c-0.515,0-0.834-0.109-0.961-0.329c-0.067-0.126-0.107-0.24-0.12-0.341c-0.013-0.102-0.019-0.253-0.019-0.455v-2.213
					c0-0.346-0.098-0.615-0.291-0.81c-0.194-0.193-0.44-0.291-0.74-0.291c-0.299,0-0.563,0.091-0.79,0.272
					c-0.228,0.181-0.358,0.386-0.392,0.613v2.453c0,0.193-0.007,0.339-0.02,0.435c-0.013,0.098-0.053,0.209-0.12,0.335
					c-0.109,0.22-0.434,0.329-0.974,0.329c-0.53,0-0.855-0.114-0.974-0.342c-0.059-0.126-0.095-0.235-0.107-0.328
					c-0.013-0.093-0.019-0.24-0.019-0.442v-7.561c0-0.194,0.006-0.34,0.019-0.437c0.013-0.097,0.049-0.204,0.107-0.322
					c0.118-0.228,0.447-0.342,0.986-0.342c0.531,0,0.852,0.114,0.961,0.342c0.067,0.126,0.107,0.238,0.12,0.335
					c0.013,0.097,0.02,0.242,0.02,0.437v2.794C335.367,318.85,335.861,318.592,336.426,318.592z"/>
				<path style="fill:#FFFFFF;" d="M347.477,318.579c0.581,0,0.923,0.161,1.024,0.48c0.05,0.161,0.075,0.371,0.075,0.633
					c0,0.262-0.027,0.47-0.082,0.626c-0.055,0.156-0.142,0.268-0.259,0.335c-0.178,0.101-0.435,0.151-0.771,0.151l-0.81-0.051v3.389
					c0,0.321-0.04,0.559-0.12,0.715c-0.08,0.156-0.202,0.259-0.366,0.31c-0.165,0.051-0.378,0.076-0.639,0.076
					c-0.262,0-0.47-0.027-0.626-0.082c-0.156-0.055-0.268-0.144-0.335-0.266c-0.067-0.122-0.107-0.234-0.12-0.335
					c-0.013-0.102-0.02-0.249-0.02-0.442v-3.352h-0.455c-0.219-0.017-0.375-0.067-0.468-0.151c-0.16-0.16-0.24-0.468-0.24-0.923
					c0-0.691,0.249-1.037,0.746-1.037h0.417v-0.67c0-0.649,0.233-1.237,0.696-1.764c0.463-0.527,1.133-0.791,2.01-0.791
					c0.194,0,0.34,0.007,0.436,0.02c0.097,0.013,0.209,0.053,0.335,0.12c0.228,0.109,0.342,0.435,0.342,0.974
					c0,0.404-0.072,0.695-0.215,0.872c-0.118,0.135-0.304,0.211-0.557,0.228c-0.076,0-0.194,0-0.354,0
					c-0.312,0-0.468,0.105-0.468,0.316v0.695L347.477,318.579z"/>
				<path style="fill:#FFFFFF;" d="M349.892,319.401c0.708-0.657,1.518-0.986,2.428-0.986c0.911,0,1.716,0.327,2.415,0.98
					c0.7,0.653,1.05,1.485,1.05,2.497c0,0.699-0.182,1.321-0.544,1.865c-0.362,0.543-0.803,0.943-1.321,1.201
					c-0.519,0.257-1.056,0.386-1.612,0.386c-0.556,0-1.096-0.138-1.618-0.411c-0.522-0.274-0.963-0.679-1.321-1.214
					c-0.358-0.535-0.537-1.141-0.537-1.815C348.83,320.894,349.184,320.059,349.892,319.401z M351.473,322.81
					c0.27,0.206,0.544,0.31,0.821,0.31c0.278,0,0.557-0.105,0.835-0.316c0.278-0.211,0.417-0.522,0.417-0.936
					c0-0.413-0.131-0.721-0.392-0.923c-0.262-0.202-0.544-0.304-0.848-0.304c-0.303,0-0.586,0.105-0.847,0.317
					c-0.262,0.211-0.393,0.52-0.393,0.929C351.068,322.295,351.202,322.603,351.473,322.81z"/>
				<path style="fill:#FFFFFF;" d="M361.133,318.643c0.16,0.051,0.293,0.138,0.398,0.26c0.105,0.122,0.158,0.318,0.158,0.588
					c0,0.27-0.08,0.564-0.24,0.885c-0.16,0.32-0.392,0.48-0.695,0.48c-0.152,0-0.297-0.033-0.436-0.102
					c-0.139-0.066-0.322-0.101-0.55-0.101c-0.227,0-0.44,0.08-0.639,0.24c-0.198,0.16-0.297,0.353-0.297,0.582v2.655
					c0,0.193-0.007,0.339-0.02,0.435c-0.013,0.098-0.053,0.209-0.12,0.335c-0.126,0.22-0.455,0.329-0.986,0.329
					c-0.404,0-0.695-0.071-0.872-0.215c-0.135-0.118-0.211-0.299-0.228-0.544c0-0.084,0-0.206,0-0.366v-4.438
					c0-0.193,0.006-0.339,0.019-0.437c0.013-0.097,0.049-0.204,0.107-0.322c0.118-0.228,0.447-0.341,0.986-0.341
					c0.506,0,0.822,0.097,0.948,0.29c0.093,0.135,0.14,0.274,0.14,0.418c0.042-0.06,0.103-0.131,0.184-0.216
					c0.08-0.084,0.25-0.197,0.512-0.341c0.261-0.144,0.491-0.215,0.689-0.215c0.197,0,0.364,0.011,0.499,0.031
					C360.825,318.557,360.973,318.592,361.133,318.643z"/>
				<path style="fill:#FFFFFF;" d="M367.669,321.899c0,0.358,0.118,0.637,0.355,0.835c0.235,0.198,0.486,0.297,0.752,0.297
					s0.515-0.078,0.746-0.233c0.232-0.156,0.419-0.234,0.563-0.234c0.253,0,0.561,0.224,0.924,0.67
					c0.193,0.245,0.29,0.464,0.29,0.658c0,0.32-0.232,0.619-0.695,0.898c-0.48,0.337-1.07,0.506-1.771,0.506
					c-0.783,0-1.538-0.282-2.263-0.848c-0.346-0.27-0.628-0.63-0.848-1.081c-0.219-0.45-0.328-0.948-0.328-1.492
					c0-0.543,0.109-1.036,0.328-1.479c0.22-0.442,0.502-0.798,0.848-1.068c0.699-0.556,1.445-0.834,2.238-0.834
					c0.32,0,0.632,0.044,0.936,0.133c0.303,0.088,0.526,0.175,0.67,0.259l0.202,0.127c0.151,0.101,0.27,0.181,0.354,0.24
					c0.219,0.168,0.328,0.36,0.328,0.575c0,0.215-0.088,0.457-0.266,0.727c-0.303,0.464-0.594,0.695-0.872,0.695
					c-0.16,0-0.388-0.092-0.683-0.277c-0.152-0.144-0.369-0.216-0.651-0.216c-0.282,0-0.546,0.102-0.79,0.304
					C367.791,321.26,367.669,321.54,367.669,321.899z"/>
				<path style="fill:#FFFFFF;" d="M375.737,318.592c0.843,0,1.544,0.321,2.105,0.961c0.561,0.642,0.841,1.425,0.841,2.353v2.226
					c0,0.193-0.006,0.339-0.019,0.435c-0.013,0.098-0.053,0.209-0.12,0.335c-0.109,0.22-0.435,0.329-0.974,0.329
					c-0.515,0-0.834-0.109-0.961-0.329c-0.067-0.126-0.107-0.24-0.12-0.341c-0.013-0.102-0.019-0.253-0.019-0.455v-2.213
					c0-0.346-0.098-0.615-0.291-0.81c-0.194-0.193-0.44-0.291-0.74-0.291c-0.299,0-0.563,0.091-0.79,0.272
					c-0.228,0.181-0.358,0.386-0.392,0.613v2.453c0,0.193-0.007,0.339-0.02,0.435c-0.013,0.098-0.053,0.209-0.12,0.335
					c-0.109,0.22-0.434,0.329-0.974,0.329c-0.53,0-0.855-0.114-0.974-0.342c-0.059-0.126-0.095-0.235-0.107-0.328
					c-0.013-0.093-0.018-0.24-0.018-0.442v-7.561c0-0.194,0.006-0.34,0.018-0.437c0.013-0.097,0.049-0.204,0.107-0.322
					c0.118-0.228,0.447-0.342,0.986-0.342c0.531,0,0.852,0.114,0.961,0.342c0.067,0.126,0.107,0.238,0.12,0.335
					c0.013,0.097,0.02,0.242,0.02,0.437v2.794C374.679,318.85,375.172,318.592,375.737,318.592z"/>
				<path style="fill:#FFFFFF;" d="M381.775,317.334c-0.063,0.122-0.175,0.209-0.335,0.26c-0.16,0.05-0.373,0.075-0.639,0.075
					s-0.478-0.025-0.639-0.075c-0.16-0.051-0.271-0.14-0.335-0.266c-0.064-0.127-0.102-0.238-0.114-0.335
					c-0.013-0.098-0.018-0.243-0.018-0.436c0-0.194,0.006-0.34,0.018-0.437c0.013-0.097,0.049-0.204,0.107-0.322
					c0.118-0.228,0.447-0.342,0.986-0.342c0.531,0,0.852,0.114,0.961,0.342c0.067,0.126,0.107,0.238,0.12,0.335
					c0.013,0.097,0.02,0.242,0.02,0.437c0,0.193-0.007,0.339-0.02,0.436C381.875,317.103,381.838,317.212,381.775,317.334z
					 M379.695,319.68c0-0.194,0.006-0.339,0.018-0.437c0.013-0.097,0.049-0.208,0.107-0.335c0.118-0.219,0.447-0.329,0.986-0.329
					c0.405,0,0.691,0.072,0.86,0.216c0.143,0.118,0.219,0.299,0.228,0.543c0.008,0.085,0.013,0.207,0.013,0.367v4.426
					c0,0.193-0.007,0.339-0.02,0.435c-0.013,0.098-0.053,0.209-0.12,0.335c-0.109,0.22-0.434,0.329-0.974,0.329
					c-0.53,0-0.855-0.114-0.974-0.342c-0.059-0.126-0.095-0.235-0.107-0.328c-0.013-0.093-0.018-0.24-0.018-0.442V319.68z"/>
				<path style="fill:#FFFFFF;" d="M382.918,316.544c0-0.194,0.006-0.339,0.019-0.437c0.013-0.097,0.049-0.208,0.107-0.335
					c0.118-0.228,0.447-0.342,0.986-0.342c0.515,0,0.835,0.114,0.961,0.342c0.067,0.127,0.108,0.24,0.12,0.342
					c0.013,0.101,0.02,0.248,0.02,0.442v5.854c0,0.303,0.025,0.495,0.075,0.575c0.051,0.08,0.163,0.12,0.336,0.12
					c0.172,0,0.288,0.006,0.348,0.018c0.059,0.013,0.13,0.049,0.215,0.107c0.168,0.11,0.253,0.409,0.253,0.898
					c0,0.53-0.085,0.855-0.253,0.974c-0.22,0.151-0.742,0.177-1.568,0.075c-0.649-0.084-1.07-0.299-1.265-0.645
					c-0.235-0.413-0.353-1.07-0.353-1.973V316.544z"/>
				<path style="fill:#FFFFFF;" d="M391.523,315.791c0.064-0.122,0.175-0.208,0.335-0.259c0.16-0.051,0.373-0.076,0.639-0.076
					c0.266,0,0.478,0.025,0.639,0.076c0.16,0.051,0.271,0.139,0.335,0.266c0.063,0.126,0.1,0.238,0.113,0.335
					c0.013,0.097,0.02,0.242,0.02,0.437v7.549c0,0.193-0.007,0.339-0.02,0.436c-0.013,0.098-0.053,0.205-0.12,0.322
					c-0.126,0.229-0.482,0.342-1.068,0.342c-0.586,0-0.912-0.206-0.979-0.619c-0.355,0.404-0.848,0.606-1.48,0.606
					c-0.759,0-1.45-0.331-2.073-0.992c-0.624-0.662-0.936-1.434-0.936-2.314c0-0.881,0.315-1.654,0.942-2.32
					c0.628-0.665,1.317-0.999,2.067-0.999c0.624,0,1.108,0.211,1.454,0.633v-2.655c0-0.194,0.006-0.34,0.018-0.437
					C391.421,316.024,391.459,315.914,391.523,315.791z M389.468,322.664c0.219,0.227,0.484,0.341,0.797,0.341
					c0.311,0,0.57-0.113,0.777-0.341c0.206-0.228,0.31-0.479,0.31-0.753c0-0.273-0.099-0.528-0.297-0.765
					c-0.198-0.236-0.466-0.354-0.803-0.354c-0.338,0-0.607,0.116-0.81,0.348c-0.202,0.232-0.304,0.487-0.304,0.766
					S389.248,322.437,389.468,322.664z"/>
				<path style="fill:#FFFFFF;" d="M399.141,318.643c0.16,0.051,0.293,0.138,0.398,0.26c0.105,0.122,0.158,0.318,0.158,0.588
					c0,0.27-0.08,0.564-0.24,0.885c-0.16,0.32-0.392,0.48-0.695,0.48c-0.152,0-0.297-0.033-0.437-0.102
					c-0.139-0.066-0.322-0.101-0.55-0.101c-0.228,0-0.44,0.08-0.639,0.24c-0.198,0.16-0.297,0.353-0.297,0.582v2.655
					c0,0.193-0.007,0.339-0.02,0.435c-0.013,0.098-0.053,0.209-0.12,0.335c-0.126,0.22-0.455,0.329-0.986,0.329
					c-0.404,0-0.695-0.071-0.872-0.215c-0.135-0.118-0.211-0.299-0.228-0.544c0-0.084,0-0.206,0-0.366v-4.438
					c0-0.193,0.006-0.339,0.018-0.437c0.013-0.097,0.049-0.204,0.108-0.322c0.118-0.228,0.447-0.341,0.986-0.341
					c0.506,0,0.822,0.097,0.948,0.29c0.093,0.135,0.14,0.274,0.14,0.418c0.042-0.06,0.103-0.131,0.184-0.216
					c0.08-0.084,0.25-0.197,0.512-0.341c0.261-0.144,0.491-0.215,0.689-0.215c0.197,0,0.364,0.011,0.499,0.031
					C398.833,318.557,398.981,318.592,399.141,318.643z"/>
				<path style="fill:#FFFFFF;" d="M406.436,321.103c0,0.518-0.128,0.901-0.386,1.15c-0.257,0.249-0.541,0.373-0.853,0.373H402.2
					c0,0.236,0.139,0.434,0.417,0.594c0.278,0.16,0.557,0.24,0.835,0.24c0.488,0,0.872-0.05,1.15-0.151l0.139-0.051
					c0.203-0.093,0.371-0.139,0.506-0.139c0.27,0,0.502,0.189,0.695,0.568c0.109,0.228,0.165,0.422,0.165,0.582
					c0,0.75-0.898,1.125-2.693,1.125c-0.624,0-1.179-0.108-1.663-0.322c-0.484-0.215-0.861-0.499-1.132-0.853
					c-0.53-0.683-0.796-1.445-0.796-2.288c0-1.063,0.343-1.912,1.03-2.548c0.687-0.637,1.545-0.955,2.573-0.955
					c1.172,0,2.031,0.413,2.579,1.239C406.293,320.106,406.436,320.584,406.436,321.103z M403.768,321.476
					c0.32,0,0.48-0.135,0.48-0.405c0-0.193-0.073-0.35-0.221-0.468c-0.147-0.118-0.358-0.177-0.633-0.177
					c-0.273,0-0.546,0.111-0.815,0.335c-0.27,0.224-0.404,0.462-0.404,0.715H403.768z"/>
				<path style="fill:#FFFFFF;" d="M410.964,318.568c0.843,0,1.544,0.322,2.104,0.967c0.56,0.645,0.841,1.431,0.841,2.358v2.226
					c0,0.193-0.006,0.339-0.018,0.436c-0.013,0.098-0.049,0.205-0.108,0.322c-0.118,0.229-0.447,0.342-0.986,0.342
					c-0.599,0-0.944-0.156-1.037-0.468c-0.05-0.143-0.075-0.358-0.075-0.645v-2.226c0-0.346-0.1-0.615-0.298-0.81
					c-0.198-0.193-0.463-0.291-0.796-0.291c-0.333,0-0.604,0.102-0.81,0.304c-0.207,0.202-0.31,0.468-0.31,0.797v2.238
					c0,0.193-0.007,0.339-0.02,0.436c-0.013,0.098-0.053,0.205-0.12,0.322c-0.109,0.229-0.434,0.342-0.974,0.342
					c-0.53,0-0.855-0.113-0.974-0.342c-0.059-0.126-0.095-0.237-0.107-0.335c-0.013-0.097-0.019-0.242-0.019-0.436v-4.477
					c0-0.185,0.006-0.326,0.019-0.424c0.013-0.097,0.053-0.204,0.12-0.322c0.118-0.21,0.443-0.315,0.974-0.315
					c0.515,0,0.83,0.097,0.948,0.29c0.085,0.144,0.127,0.316,0.127,0.519c0.033-0.059,0.109-0.143,0.228-0.253
					c0.118-0.109,0.231-0.197,0.342-0.266C410.302,318.664,410.618,318.568,410.964,318.568z"/>
			</g>
			<rect x="426.237" y="311.105" style="fill:#FFFFFF;" width="7.916" height="20.138"/>
			<rect x="437.859" y="311.105" style="fill:#FFFFFF;" width="3.182" height="20.138"/>
			
				<rect x="276.904" y="311.105" transform="matrix(-1 -1.224647e-16 1.224647e-16 -1 561.7237 642.3473)" style="fill:#D31A4A;" width="7.916" height="20.138"/>
			
				<rect x="270.017" y="311.105" transform="matrix(-1 -1.224647e-16 1.224647e-16 -1 543.2155 642.3473)" style="fill:#D31A4A;" width="3.182" height="20.138"/>
		</g>
		<g>
			<path style="fill:#D31A4A;" d="M431.521,437.455H226.195c-4.826,0-8.738-3.912-8.738-8.739v-35.842
				c0-4.826,3.912-8.739,8.738-8.739h205.326c4.826,0,8.739,3.912,8.739,8.739v35.842
				C440.259,433.543,436.347,437.455,431.521,437.455z"/>
			<path style="fill:#FFFFFF;" d="M424.351,384.136h-5.644c4.826,0,8.739,3.912,8.739,8.738v35.842c0,4.826-3.912,8.739-8.739,8.739
				h5.644c4.826,0,8.739-3.912,8.739-8.739v-35.842C433.09,388.048,429.177,384.136,424.351,384.136z"/>
			<path style="fill:#FFFFFF;" d="M381.334,384.136h-5.644c4.826,0,8.738,3.912,8.738,8.738v35.842c0,4.826-3.912,8.739-8.738,8.739
				h5.644c4.826,0,8.739-3.912,8.739-8.739v-35.842C390.073,388.048,386.16,384.136,381.334,384.136z"/>
			<path style="fill:#170044;" d="M367.86,437.955v-1c4.543,0,8.239-3.696,8.239-8.239v-33.047c0-6.084-4.95-11.033-11.034-11.033
				v-1c6.636,0,12.034,5.398,12.034,12.033v33.047C377.099,433.811,372.954,437.955,367.86,437.955z"/>
			<path style="fill:#FFFFFF;" d="M362.141,429.476H214.469c-3.424,0-6.2-2.776-6.2-6.2v-24.96c0-3.424,2.776-6.2,6.2-6.2h147.672
				c3.424,0,6.2,2.776,6.2,6.2v24.96C368.341,426.7,365.565,429.476,362.141,429.476z"/>
			<rect x="273.329" y="401.534" style="fill:#CEDDFF;" width="73.371" height="1"/>
			<rect x="273.329" y="413.534" style="fill:#CEDDFF;" width="36.686" height="1"/>
			<rect x="273.329" y="405.195" style="fill:#CEDDFF;" width="89.235" height="1"/>
			<rect x="273.329" y="421.873" style="fill:#CEDDFF;" width="89.235" height="1"/>
		</g>
		<g>
			<path style="fill:#FFFFFF;" d="M440.513,335.705h-76.171c-1.919,0-3.475,1.556-3.475,3.475v13.988
				c0,1.919,1.556,3.475,3.475,3.475h76.171V335.705z"/>
			<path style="fill:#56CCA5;" d="M371.258,356.643c-1.919,0-3.475-1.556-3.475-3.475V339.18c0-1.919,1.556-3.475,3.475-3.475
				h74.169v-4.472H266.411c-2.705,0-4.897,2.193-4.897,4.898v20.086c0,2.705,2.193,4.897,4.897,4.897h179.016v-4.472H371.258z"/>
			<path style="fill:#34A585;" d="M369.167,361.614c-3.84,0-6.964-3.124-6.964-6.963v-18.52c0-2.977,2.421-5.398,5.397-5.398v1
				c-2.425,0-4.397,1.973-4.397,4.398v18.52c0,3.288,2.676,5.963,5.964,5.963V361.614z"/>
			<rect x="400.039" y="351.399" style="fill:#CEDDFF;" width="40.475" height="1"/>
			<rect x="420.277" y="343.859" style="fill:#CEDDFF;" width="20.237" height="1"/>
			<rect x="367.727" y="347.839" style="fill:#CEDDFF;" width="49.226" height="1"/>
			<rect x="391.288" y="339.186" style="fill:#CEDDFF;" width="49.226" height="1"/>
		</g>
	</g>
	<g>
		
			<rect x="327.636" y="86.206" transform="matrix(-1 -1.224647e-16 1.224647e-16 -1 755.3059 242.9765)" style="fill:#0043A5;" width="100.034" height="70.563"/>
		<g>
			<g>
				<polygon style="fill:#0043A5;" points="445.577,131.761 445.577,121.811 429.011,121.811 				"/>
				<polygon style="fill:#0043A5;" points="345.543,88.412 345.543,98.373 362.129,98.373 				"/>
				<polygon style="fill:#0043A5;" points="345.543,121.811 345.543,131.761 362.109,121.811 				"/>
				<polygon style="fill:#0043A5;" points="428.992,98.373 445.577,98.373 445.577,88.412 				"/>
				<polygon style="fill:#0043A5;" points="407.267,74.712 407.267,94.687 440.523,74.712 				"/>
				<polygon style="fill:#0043A5;" points="383.893,145.276 383.893,125.461 350.904,145.276 				"/>
				<polygon style="fill:#0043A5;" points="350.597,74.712 383.893,94.711 383.893,74.712 				"/>
				<polygon style="fill:#0043A5;" points="440.216,145.276 407.267,125.485 407.267,145.276 				"/>
			</g>
			<g>
				<polygon style="fill:#FFFFFF;" points="407.267,98.373 407.267,97.395 445.032,74.712 440.523,74.712 407.267,94.687 
					407.267,74.712 402.446,74.712 402.446,103.21 445.577,103.21 445.577,98.373 428.992,98.373 445.577,88.412 445.577,80.485 
					415.795,98.373 				"/>
				<polygon style="fill:#FFFFFF;" points="407.267,145.276 407.267,125.485 440.216,145.276 445.577,145.276 445.577,140.514 
					414.439,121.811 424.595,121.811 445.577,134.413 445.577,131.761 429.011,121.811 445.577,121.811 445.577,116.975 
					402.446,116.975 402.446,145.276 				"/>
				<polygon style="fill:#FFFFFF;" points="383.893,121.811 383.893,122.519 346.005,145.276 350.904,145.276 383.893,125.461 
					383.893,145.276 388.715,145.276 388.715,116.975 345.543,116.975 345.543,121.811 362.109,121.811 345.543,131.761 
					345.543,139.453 374.915,121.811 				"/>
				<polygon style="fill:#FFFFFF;" points="383.893,74.712 383.893,94.711 350.597,74.712 345.543,74.712 345.543,80.044 
					376.059,98.373 365.903,98.373 345.543,86.145 345.543,88.412 362.129,98.373 345.543,98.373 345.543,103.21 388.715,103.21 
					388.715,74.712 				"/>
			</g>
			<g>
				<polygon style="fill:#D31A4A;" points="376.059,98.373 345.543,80.044 345.543,86.145 365.903,98.373 				"/>
				<polygon style="fill:#D31A4A;" points="414.439,121.811 445.577,140.514 445.577,134.413 424.595,121.811 				"/>
				<polygon style="fill:#D31A4A;" points="445.032,74.712 407.267,97.395 407.267,98.373 415.795,98.373 445.577,80.485 
					445.577,74.712 				"/>
				<polygon style="fill:#D31A4A;" points="346.005,145.276 383.893,122.519 383.893,121.811 374.915,121.811 345.543,139.453 
					345.543,145.276 				"/>
				<polygon style="fill:#D31A4A;" points="388.715,145.276 402.446,145.276 402.446,116.975 445.577,116.975 445.577,103.21 
					402.446,103.21 402.446,74.712 388.715,74.712 388.715,103.21 345.543,103.21 345.543,116.975 388.715,116.975 				"/>
			</g>
		</g>
		<rect x="325.049" y="83.281" style="fill:#170044;" width="4" height="227.765"/>
		<path style="fill:#170044;" d="M333.728,79.222c0,3.689-2.99,6.679-6.679,6.679c-3.689,0-6.679-2.99-6.679-6.679
			s2.99-6.679,6.679-6.679C330.738,72.543,333.728,75.533,333.728,79.222z"/>
		<polygon style="fill:#170044;" points="345.601,145.276 427.67,156.77 427.67,145.276 		"/>
		<path style="fill:#D31A4A;" d="M358.012,311.105c-0.818-6.758-6.563-11.998-13.542-11.998h-34.842
			c-6.979,0-12.724,5.24-13.542,11.998H358.012z"/>
	</g>
	<g>
		<rect x="113.624" y="114.422" style="fill:#D31A4A;" width="51.694" height="20.007"/>
		<path style="fill:#0043A5;" d="M302.909,437.455H69.885V147.61c0-7.28,5.902-13.182,13.182-13.182h219.842
			c6.388,0,11.566,5.178,11.566,11.566v279.894C314.475,432.277,309.296,437.455,302.909,437.455z"/>
		<rect x="264.156" y="148.421" style="fill:#FFFFFF;" width="38.857" height="275.04"/>
		<path style="fill:#0043A5;" d="M268.782,437.455H76.077c-7.288,0-13.196-5.908-13.196-13.196V147.625
			c0-7.288,5.908-13.196,13.196-13.196h192.705c7.288,0,13.196,5.908,13.196,13.196v276.634
			C281.978,431.547,276.07,437.455,268.782,437.455z"/>
		<path style="fill:#D31A4A;" d="M98.205,134.428H76.077c-7.288,0-13.196,5.908-13.196,13.196v276.634
			c0,7.288,5.908,13.196,13.196,13.196h22.128V134.428z"/>
		<path style="fill:#0043A5;" d="M273.371,134.428h-0.607h-3.375h-0.607h-0.037h-0.607h-3.375h-0.607
			c7.288,0,13.197,5.908,13.197,13.196v276.634c0,7.288-5.908,13.196-13.197,13.196h0.607h3.375h0.607h0.037h0.607h3.375h0.607
			c7.288,0,13.196-5.908,13.196-13.196V147.624C286.567,140.336,280.659,134.428,273.371,134.428z"/>
		<rect x="75.577" y="134.429" style="fill:#170044;" width="1" height="303.025"/>
		<path style="fill:#170044;" d="M264.156,437.954v-1c7.001,0,12.696-5.695,12.696-12.695V147.624c0-7-5.695-12.695-12.696-12.695
			v-1c7.552,0,13.696,6.144,13.696,13.695v276.635C277.853,431.811,271.708,437.954,264.156,437.954z"/>
		<g>
			<path style="fill:#FFFFFF;" d="M199.553,315.767h59.588c-0.454-2.815-1.079-5.571-1.848-8.267h-12.363l10.294-6.183
				c-1.412-3.654-3.11-7.164-5.071-10.503l-27.78,16.686h-14.577v-1.672l37.357-22.438c-0.814-1.061-1.66-2.095-2.531-3.109
				l-34.826,20.918v-43.303c-2.688-0.773-5.436-1.4-8.242-1.859V315.767z"/>
			<path style="fill:#FFFFFF;" d="M199.553,339.297v59.395c2.806-0.46,5.554-1.086,8.242-1.859v-42.987l34.646,20.81
				c2.562-2.958,4.896-6.118,6.956-9.467l-29.344-17.625h17.361l16.18,9.718c0.541-1.189,1.051-2.394,1.528-3.616l-10.16-6.102
				h12.235c0.783-2.695,1.416-5.452,1.884-8.267H199.553z"/>
			<path style="fill:#FFFFFF;" d="M176.082,339.297h-59.597c0.468,2.815,1.101,5.572,1.883,8.267h12.235l-10.16,6.103
				c1.383,3.539,3.035,6.942,4.934,10.185l27.116-16.287h15.346v1.21l-37.472,22.507c0.884,1.154,1.806,2.277,2.757,3.375
				l34.715-20.851v43.048c2.688,0.77,5.436,1.395,8.242,1.852V339.297z"/>
			<path style="fill:#FFFFFF;" d="M176.082,315.767v-59.743c-2.806,0.457-5.554,1.082-8.242,1.852v43.364l-34.895-20.959
				c-2.671,3.109-5.091,6.439-7.209,9.973l28.713,17.246h-17.361l-15.463-9.288c-0.451,1.023-0.878,2.058-1.283,3.105l10.293,6.183
				h-12.363c-0.769,2.696-1.394,5.452-1.848,8.267H176.082z"/>
			<path style="fill:#D31A4A;" d="M137.088,307.5h17.361l-28.713-17.246c-1.531,2.553-2.899,5.213-4.111,7.958L137.088,307.5z"/>
			<path style="fill:#D31A4A;" d="M237.414,347.563h-17.361l29.344,17.625c1.559-2.534,2.955-5.178,4.197-7.906L237.414,347.563z"/>
			<path style="fill:#D31A4A;" d="M207.794,305.828v1.672h14.577l27.78-16.686c-1.516-2.582-3.185-5.061-5-7.425L207.794,305.828z"
				/>
			<path style="fill:#D31A4A;" d="M167.84,348.773v-1.21h-15.346l-27.116,16.287c1.513,2.583,3.179,5.064,4.991,7.429
				L167.84,348.773z"/>
			<path style="fill:#D31A4A;" d="M259.141,315.767h-59.588v-59.73c-3.832-0.628-7.76-0.969-11.77-0.969h0
				c-3.985,0-7.891,0.336-11.701,0.956v59.743h-59.657c-0.609,3.777-0.938,7.648-0.938,11.597v0c0,4.067,0.353,8.049,0.998,11.933
				h59.597v59.407c3.809,0.62,7.714,0.956,11.698,0.957h0.005c4.009,0,7.937-0.341,11.768-0.969v-59.395h59.528
				c0.519-3.124,0.833-6.316,0.938-9.562v-4.742C259.918,321.864,259.627,318.783,259.141,315.767z"/>
			<path style="fill:#170044;" d="M187.753,400.16c-40.141,0-72.797-32.656-72.797-72.796c0-40.141,32.656-72.797,72.797-72.797
				c40.14,0,72.796,32.656,72.796,72.797C260.549,367.504,227.893,400.16,187.753,400.16z M187.753,255.568
				c-39.589,0-71.797,32.208-71.797,71.797c0,39.589,32.208,71.796,71.797,71.796c39.589,0,71.796-32.207,71.796-71.796
				C259.549,287.776,227.342,255.568,187.753,255.568z"/>
		</g>
	</g>
	<g>
		<path style="fill:#FFFFFF;" d="M337.836,240.122h102.645c0,0,5.962,35.437-21.03,60.015c-2,1.821-3.486,4.136-4.266,6.726
			c-0.758,2.518-3.077,4.242-5.707,4.242H368.84c-2.63,0-4.949-1.724-5.707-4.242c-0.78-2.59-2.266-4.905-4.266-6.726
			C331.874,275.558,337.836,240.122,337.836,240.122z"/>
		<path style="fill:#EEF4FF;" d="M440.481,240.122H420.49c0,0,3.992,25.894-10.698,48.748c-5.063,7.876-13.852,12.568-23.215,12.563
			l0,0l-13.551-0.254c5.52,1.072,13.322,1.729,13.322,1.729s0.788,7.348-4.729,8.198h27.858c2.672,0,4.95-1.797,5.74-4.349
			c0.788-2.546,2.261-4.823,4.233-6.618C446.443,275.559,440.481,240.122,440.481,240.122z"/>
		<path style="fill:#FFFFFF;" d="M359.028,291.695l0.063-6c-15.963-0.166-27.916-4.307-35.527-12.307
			c-6.468-6.799-8.189-14.863-8.641-19.066h31.018v-6h-34.169c-1.604,0-2.924,1.261-2.997,2.863l0,0
			c-0.027,0.596-0.539,14.726,10.363,26.256C327.906,286.715,341.328,291.511,359.028,291.695z"/>
		<path style="fill:#FFFFFF;" d="M388.748,233.346c-1.961-1.579-3.351-4.121-3.153-6.765c0.421-4.912,4.065-7.982,4.267-12.521
			c0.116-1.942-0.423-4.008-1.145-6.157c-0.199-0.497,0.498-0.926,0.851-0.526c3.783,3.723,4.115,9.404,1.572,13.893
			c-2.377,4.362-3.958,6.843-1.604,11.46C389.781,233.201,389.143,233.697,388.748,233.346L388.748,233.346z"/>
		<path style="fill:#FFFFFF;" d="M400.169,233.346c-3.588-2.528-2.565-6.333-0.859-9.368c1.462-2.621,1.495-4.524,0.828-7.478
			c-0.076-0.292,0.108-0.597,0.409-0.651c0.164-0.03,0.327,0.022,0.442,0.125c1.197,1.079,2.18,2.571,2.457,4.414
			c0.283,1.853-0.333,3.724-1.037,5.117c-1.472,2.831-2.605,4.026-1.452,7.223C401.164,233.197,400.567,233.661,400.169,233.346
			L400.169,233.346z"/>
		<path style="fill:#FFFFFF;" d="M376.219,233.346c-3.588-2.528-2.565-6.333-0.859-9.368c1.462-2.621,1.495-4.524,0.827-7.478
			c-0.076-0.292,0.108-0.597,0.409-0.651c0.164-0.03,0.327,0.022,0.442,0.125c1.197,1.079,2.18,2.571,2.457,4.414
			c0.283,1.853-0.333,3.724-1.037,5.117c-1.472,2.831-2.605,4.026-1.452,7.223C377.214,233.197,376.617,233.661,376.219,233.346
			L376.219,233.346z"/>
	</g>
	<g>
		<path style="fill:#56CCA5;" d="M279.041,54.848h-74.703c-6.361,0-11.518,5.157-11.518,11.518v32.241
			c0,6.325,5.1,11.455,11.412,11.513v13.169l9.328-13.163h65.481c6.361,0,11.518-5.157,11.518-11.518V66.367
			C290.559,60.005,285.402,54.848,279.041,54.848z"/>
		<path style="fill:#FFFFFF;" d="M226.13,81.561c0,2.795-2.266,5.061-5.061,5.061c-2.795,0-5.061-2.266-5.061-5.061
			c0-2.795,2.266-5.062,5.061-5.062C223.863,76.5,226.13,78.766,226.13,81.561z"/>
		<path style="fill:#FFFFFF;" d="M246.751,81.561c0,2.795-2.266,5.061-5.061,5.061c-2.795,0-5.062-2.266-5.062-5.061
			c0-2.795,2.266-5.062,5.062-5.062C244.484,76.5,246.751,78.766,246.751,81.561z"/>
		<path style="fill:#FFFFFF;" d="M267.371,81.561c0,2.795-2.266,5.061-5.061,5.061s-5.061-2.266-5.061-5.061
			c0-2.795,2.266-5.062,5.061-5.062S267.371,78.766,267.371,81.561z"/>
	</g>
	<rect x="47.658" y="436.955" style="fill:#170044;" width="404.683" height="1"/>
</g>
<g id="TEXT">
	<g>
		
			<text transform="matrix(1 0 0 1 96.9431 231.1866)" style="fill:#FFFFFF; font-family:'BebasNeue-Regular'; font-size:60.0482px;">English</text>
	</g>
</g>
</svg>
