<?xml version="1.0" standalone="no"?>
<!DOCTYPE svg PUBLIC "-//W3C//DTD SVG 20010904//EN"
 "http://www.w3.org/TR/2001/REC-SVG-20010904/DTD/svg10.dtd">
<svg version="1.0" xmlns="http://www.w3.org/2000/svg"
 width="4320.000000pt" height="4320.000000pt" viewBox="0 0 4320.000000 4320.000000"
 preserveAspectRatio="xMidYMid meet">

<g transform="translate(0.000000,4320.000000) scale(0.100000,-0.100000)"
fill="#519adf" stroke="none">
<path d="M10545 25860 c-360 -7 -477 -20 -637 -70 -166 -51 -320 -144 -447
-269 -192 -188 -296 -398 -338 -681 -20 -135 -35 -2447 -30 -4645 3 -1546 5
-1730 20 -1815 31 -177 82 -316 167 -454 168 -273 409 -445 720 -515 l115 -25
2795 -1 c1537 -1 3344 -5 4015 -9 1571 -10 1708 -4 1962 85 265 94 531 285
691 498 101 134 192 331 233 506 19 81 22 127 26 450 2 198 0 621 -5 940 -8
492 -12 588 -26 632 -38 119 -143 199 -260 197 -136 -2 -233 -101 -267 -272
-9 -51 -9 -214 1 -789 6 -398 9 -770 5 -826 -19 -280 -97 -461 -274 -636 -69
-67 -168 -137 -235 -165 -121 -51 62 -48 -3016 -45 -1570 2 -3087 3 -3370 4
-283 0 -523 4 -532 8 -10 5 -20 25 -24 45 -9 49 -9 1647 2 4699 l9 2562 20 21
c13 12 44 24 80 30 77 13 5905 13 6345 0 265 -7 328 -12 400 -30 227 -56 418
-214 491 -409 46 -122 51 -183 58 -636 l6 -430 28 -48 c30 -52 95 -100 157
-117 112 -32 238 -19 294 31 78 68 95 176 96 594 0 458 -17 603 -90 778 -137
330 -566 688 -938 782 -31 8 -118 19 -192 25 -151 11 -7472 11 -8055 0z m694
-555 c18 -20 19 -96 24 -3667 5 -3154 4 -3649 -8 -3662 -22 -22 -150 -27 -650
-29 -433 -2 -452 -1 -511 19 -83 29 -167 86 -223 154 -107 128 -137 208 -150
397 -6 82 -11 1412 -13 3263 l-3 3125 28 59 c34 72 124 187 180 228 23 16 67
43 97 58 135 69 237 79 772 77 423 -2 438 -3 457 -22z"/>
<path d="M14135 23480 c-33 -4 -69 -11 -80 -15 -42 -17 -88 -59 -106 -99 -40
-92 -42 -299 -3 -381 17 -37 53 -67 92 -80 41 -12 2943 -8 2990 5 59 15 106
66 123 132 19 73 16 222 -5 272 -50 118 -112 151 -312 166 -160 11 -2605 11
-2699 0z"/>
<path d="M33561 23381 c-12 -8 -13 -64 -7 -358 3 -191 9 -370 13 -398 l6 -49
-59 51 c-136 119 -247 163 -408 163 -178 0 -301 -44 -401 -146 -234 -236 -289
-848 -109 -1206 43 -86 140 -189 218 -233 163 -90 392 -92 558 -3 54 29 178
147 178 169 0 5 3 9 8 9 4 0 25 -50 47 -110 l40 -111 170 6 170 6 0 1107 0
1107 -205 2 c-113 2 -211 -1 -219 -6z m-173 -967 c128 -64 192 -222 192 -476
0 -307 -129 -484 -340 -465 -140 12 -241 100 -279 244 -21 76 -29 224 -19 328
25 269 131 392 339 394 40 1 69 -6 107 -25z"/>
<path d="M28190 23250 c-168 -36 -263 -81 -345 -165 -131 -133 -183 -384 -121
-581 58 -180 178 -296 436 -421 287 -138 302 -146 354 -197 83 -81 98 -184 41
-282 -82 -140 -408 -134 -752 15 l-111 49 -6 -47 c-3 -25 -7 -120 -8 -211 l-3
-164 119 -38 c196 -63 265 -73 491 -72 174 0 210 3 280 22 133 37 220 85 306
171 119 120 169 242 169 414 0 158 -50 278 -165 393 -94 94 -161 136 -414 261
-180 88 -223 113 -267 157 -82 82 -95 173 -39 258 33 49 86 74 190 89 118 16
299 -13 470 -75 47 -17 67 -20 74 -12 4 6 27 54 49 106 22 52 52 121 66 152
l25 57 -56 26 c-85 38 -236 83 -343 100 -130 20 -332 18 -440 -5z"/>
<path d="M20094 23235 c-6 -26 -1 -2062 6 -2067 3 -2 274 -2 603 0 l597 2 0
180 0 180 -374 0 c-332 0 -375 2 -380 16 -3 9 -6 127 -6 264 l0 247 38 7 c20
3 177 6 347 6 l310 0 -3 180 -3 180 -344 0 -345 0 0 229 0 229 93 7 c50 4 219
5 375 3 l282 -3 0 180 0 180 -595 0 c-588 0 -596 0 -601 -20z"/>
<path d="M29595 23098 c-3 -7 -19 -53 -36 -103 -73 -208 -131 -287 -260 -348
l-74 -35 3 -91 3 -91 77 -1 c42 -1 86 -2 97 -3 30 -2 33 -52 33 -476 0 -379 7
-470 39 -553 35 -89 112 -176 194 -217 126 -65 355 -64 584 2 l80 23 -2 159
c-1 87 -4 160 -7 163 -2 2 -53 -8 -112 -23 -209 -52 -308 -15 -334 126 -6 33
-9 206 -8 425 l3 370 223 3 222 2 0 163 0 162 -225 -3 -225 -3 0 180 0 181
-135 0 c-100 0 -137 -3 -140 -12z"/>
<path d="M23551 22971 c-62 -186 -110 -248 -241 -316 -78 -41 -78 -39 -71
-139 l6 -88 100 -2 100 -1 6 -455 c4 -390 8 -464 23 -515 78 -272 282 -368
648 -305 62 10 138 28 168 38 53 18 55 20 55 55 -1 21 -2 95 -3 166 l-2 129
-92 -25 c-61 -17 -122 -26 -178 -27 -74 -1 -89 2 -118 22 -68 49 -67 42 -70
498 l-3 411 62 7 c34 3 133 6 220 6 l159 0 0 83 c0 46 3 118 6 160 l7 77 -227
0 -226 0 0 68 c0 38 -3 117 -7 175 l-6 107 -136 0 -136 0 -44 -129z"/>
<path d="M26490 22779 c-134 -15 -223 -40 -327 -90 l-102 -49 55 -117 c31 -65
59 -126 61 -135 3 -10 7 -18 8 -18 2 0 44 13 94 30 198 64 377 85 477 55 89
-26 124 -87 124 -215 l0 -80 -32 0 c-177 -2 -405 -22 -500 -44 -329 -76 -480
-261 -446 -546 34 -286 212 -440 508 -440 199 0 352 69 470 211 l49 59 19 -53
c11 -28 30 -82 42 -119 l23 -68 148 0 149 0 0 590 c0 390 -4 607 -11 642 -24
116 -110 239 -209 300 -132 80 -364 114 -600 87z m394 -979 c0 -53 -6 -117
-14 -143 -17 -64 -85 -138 -158 -174 -49 -24 -69 -28 -142 -28 -111 0 -171 28
-208 95 -31 59 -28 141 9 194 67 100 235 157 449 152 l65 -1 -1 -95z"/>
<path d="M25452 22769 c-29 -5 -86 -24 -125 -42 -73 -34 -118 -75 -197 -180
-19 -26 -37 -46 -40 -46 -3 -1 -23 54 -45 122 l-40 122 -168 3 -167 2 0 -788
c0 -434 2 -791 4 -793 2 -2 101 -3 220 -1 l215 3 3 457 c3 451 3 458 26 514
65 161 236 253 462 247 66 -2 85 1 87 12 1 8 4 96 6 197 l4 182 -96 -1 c-53
-1 -120 -5 -149 -10z"/>
<path d="M21520 22745 c0 -3 92 -143 205 -311 205 -306 295 -446 295 -462 0
-5 -119 -187 -264 -405 l-263 -396 234 -3 c223 -3 235 -2 253 17 15 17 242
367 309 478 l23 38 88 -143 c49 -79 125 -200 170 -270 l82 -128 239 2 c131 0
239 3 239 5 0 7 -107 173 -255 398 -178 269 -265 404 -265 410 0 2 89 138 198
302 109 164 222 337 250 386 l52 87 -247 -2 -247 -3 -41 -71 c-64 -112 -259
-424 -266 -424 -3 0 -13 17 -23 38 -10 20 -66 118 -125 217 -60 99 -116 195
-125 213 l-17 32 -249 0 c-138 0 -250 -2 -250 -5z"/>
<path d="M30650 22248 c0 -277 5 -543 10 -593 12 -104 41 -219 71 -277 46 -90
152 -178 265 -220 79 -29 295 -32 394 -5 107 29 205 82 282 155 78 74 79 73
97 -17 6 -31 16 -73 21 -93 l11 -37 158 2 158 2 7 74 c3 41 6 397 6 793 l0
718 -217 0 -218 0 3 -357 c3 -428 -7 -601 -41 -696 -48 -131 -141 -206 -268
-215 -100 -7 -153 11 -215 72 -84 85 -84 84 -84 684 l0 512 -220 0 -220 0 0
-502z"/>
<path d="M14165 21960 c-88 -4 -173 -12 -188 -18 -115 -48 -178 -186 -164
-360 9 -106 45 -176 111 -217 l50 -30 1125 1 c861 1 1140 4 1186 14 166 34
224 122 213 320 -9 154 -67 246 -176 281 -42 14 -1880 22 -2157 9z"/>
<path d="M15350 20360 c-212 -5 -602 -8 -866 -8 -477 1 -482 1 -527 -21 -94
-46 -147 -140 -147 -261 0 -116 54 -215 144 -262 40 -22 53 -22 606 -30 311
-5 966 -7 1455 -6 1006 3 927 -3 1004 85 48 54 65 118 59 219 -6 91 -41 154
-112 201 -85 58 -122 64 -441 73 -542 16 -789 18 -1175 10z"/>
<path d="M21990 19924 c-101 -21 -161 -76 -182 -166 -26 -115 39 -211 199
-293 131 -67 170 -122 128 -182 -38 -54 -137 -54 -255 1 -75 34 -75 34 -82 13
-11 -39 -9 -124 5 -135 49 -40 268 -61 352 -32 102 34 156 98 163 191 9 121
-37 180 -203 266 -99 51 -141 84 -145 113 -5 32 1 48 25 74 32 34 97 35 188 2
37 -13 69 -21 72 -17 9 15 23 126 17 132 -14 14 -110 38 -163 41 -31 3 -84 -1
-119 -8z"/>
<path d="M28321 19927 c-187 -26 -301 -177 -302 -397 -1 -147 35 -243 118
-321 95 -89 248 -116 412 -74 l73 19 -6 51 c-3 27 -6 60 -6 72 l0 21 -51 -19
c-69 -27 -166 -35 -214 -19 -54 18 -121 83 -142 138 -13 34 -18 72 -17 135 1
76 5 95 30 144 38 74 90 112 165 120 49 5 132 -9 191 -32 21 -8 35 21 40 85 3
42 2 43 -37 57 -53 19 -187 30 -254 20z"/>
<path d="M22410 19923 c-24 -4 -25 -6 -22 -73 l4 -70 104 0 104 0 0 -325 0
-325 85 0 85 0 0 325 0 325 73 1 c39 1 89 1 110 0 l37 -3 0 70 0 69 -107 6
c-110 7 -429 7 -473 0z"/>
<path d="M24013 19923 l-33 -4 0 -395 0 -394 168 0 c187 0 239 10 323 61 127
79 191 247 160 424 -31 175 -143 282 -322 305 -72 9 -232 11 -296 3z m302
-144 c59 -17 92 -45 122 -102 21 -43 26 -66 26 -132 1 -103 -15 -156 -61 -207
-50 -56 -101 -78 -184 -78 l-68 0 0 265 0 265 63 0 c34 0 80 -5 102 -11z"/>
<path d="M27070 19923 c0 -5 0 -152 -1 -328 -1 -176 -1 -353 -1 -392 l2 -73
80 0 80 0 0 154 c0 181 -14 166 153 166 l107 0 0 65 0 64 -127 3 -128 3 -3 97
-3 97 34 6 c19 4 87 5 151 3 l116 -3 0 66 0 66 -172 6 c-224 9 -288 9 -288 0z"/>
<path d="M29155 19922 c-3 -3 -5 -182 -5 -399 l0 -393 235 0 235 0 0 63 0 64
-55 -5 c-30 -2 -97 -1 -150 3 l-95 7 0 104 0 104 140 0 140 0 0 70 0 70 -140
0 -140 0 0 90 0 90 148 0 147 0 0 64 1 64 -122 6 c-127 8 -331 6 -339 -2z"/>
<path d="M30645 19921 c-27 -5 -30 -9 -29 -46 2 -93 -9 -84 117 -87 l112 -3 0
-330 0 -330 80 0 80 0 3 326 2 327 23 6 c12 3 61 6 110 6 l87 0 0 64 c0 44 -4
65 -13 69 -20 7 -536 6 -572 -2z"/>
<path d="M31360 19530 l0 -400 250 0 250 0 0 74 0 74 -108 -6 c-60 -2 -134 -2
-165 2 l-57 7 0 325 0 324 -85 0 -85 0 0 -400z"/>
<path d="M31948 19923 c-21 -2 -38 -8 -38 -12 0 -4 41 -78 90 -165 50 -87 107
-190 128 -229 l37 -72 5 -160 5 -160 77 -3 77 -3 7 36 c4 21 4 69 1 108 -13
147 -3 179 136 428 l125 224 -81 6 c-96 8 -102 6 -115 -29 -6 -15 -40 -89 -76
-166 l-65 -138 -83 168 -84 169 -54 1 c-30 1 -72 -1 -92 -3z"/>
<path d="M23122 19628 c3 -281 4 -295 26 -344 29 -64 82 -116 147 -146 68 -31
214 -32 295 -3 73 27 131 85 160 161 20 54 22 83 27 342 l6 282 -86 0 -87 0 0
-262 c0 -162 -4 -278 -11 -303 -23 -82 -108 -127 -194 -104 -50 14 -73 34 -96
84 -17 36 -19 70 -19 313 l0 272 -86 0 -86 0 4 -292z"/>
<path d="M24746 19870 c13 -27 24 -51 24 -53 0 -2 42 -80 94 -174 51 -94 98
-185 105 -203 6 -19 11 -94 11 -171 l0 -139 80 0 c96 0 91 -9 87 170 l-2 125
59 115 c32 63 90 172 127 242 38 69 69 128 69 131 0 2 -38 5 -85 6 l-85 2 -80
-161 c-43 -88 -82 -160 -85 -160 -3 0 -41 72 -86 160 l-81 160 -88 0 -88 0 24
-50z"/>
<path d="M25804 19898 c3 -13 6 -191 6 -395 l0 -373 235 0 235 0 0 66 0 66
-90 -7 c-49 -4 -116 -4 -150 0 l-60 7 0 104 0 104 135 0 135 0 0 65 0 64 -137
3 -138 3 -3 87 -3 87 35 7 c20 3 87 5 150 3 l115 -4 3 67 3 68 -239 0 -238 0
6 -22z"/>
<path d="M26440 19525 l0 -395 85 0 85 0 0 160 0 160 140 0 140 0 0 65 0 65
-140 0 -140 0 0 99 0 99 64 7 c36 4 101 6 145 4 l81 -4 0 67 0 68 -230 0 -230
0 0 -395z"/>
<path d="M27685 19757 c0 -89 1 -267 3 -394 l2 -233 80 0 80 0 2 395 3 395
-85 0 -85 0 0 -163z"/>
<path d="M28780 19525 l0 -395 85 0 85 0 0 395 0 395 -85 0 -85 0 0 -395z"/>
<path d="M29783 19739 c4 -100 7 -279 7 -398 l0 -216 72 3 73 3 -3 297 c-1
163 0 293 4 289 10 -10 125 -206 236 -404 l103 -182 113 -1 112 0 0 395 0 395
-75 0 -75 0 0 -249 c0 -136 -3 -269 -6 -295 l-7 -47 -70 133 c-38 73 -113 205
-167 293 l-96 160 -114 3 -113 3 6 -182z"/>
</g>
</svg>
