<?xml version="1.0" standalone="no"?>
<!DOCTYPE svg PUBLIC "-//W3C//DTD SVG 20010904//EN"
 "http://www.w3.org/TR/2001/REC-SVG-20010904/DTD/svg10.dtd">
<svg version="1.0" xmlns="http://www.w3.org/2000/svg"
 width="923.000000pt" height="609.000000pt" viewBox="0 0 923.000000 609.000000"
 preserveAspectRatio="xMidYMid meet">

<g transform="translate(0.000000,609.000000) scale(0.100000,-0.100000)"
fill="#519adf" stroke="none">
<path d="M3300 4880 c-495 -5 -708 -10 -740 -19 -79 -21 -163 -73 -236 -146
-81 -80 -115 -134 -141 -220 -16 -56 -18 -155 -21 -1465 -2 -882 1 -1442 7
-1505 8 -81 16 -112 46 -172 71 -144 155 -222 291 -270 l79 -28 1925 -3 c1351
-2 1942 0 1982 8 205 39 408 200 486 385 41 100 45 164 39 598 -5 373 -7 411
-24 440 -43 73 -159 73 -205 -1 l-23 -37 3 -387 c3 -274 0 -404 -8 -445 -24
-114 -87 -204 -186 -263 l-58 -35 -1532 -3 c-991 -1 -1541 1 -1558 8 l-26 10
0 1639 c0 902 3 1646 6 1655 6 15 143 16 1453 16 795 0 1496 -4 1558 -10 168
-14 241 -59 302 -190 24 -52 26 -65 31 -273 l5 -219 32 -28 c20 -18 48 -31 75
-35 116 -17 135 5 149 170 14 165 3 321 -28 415 -31 95 -52 129 -128 209 -98
104 -209 169 -324 191 -60 11 -2341 18 -3231 10z m-170 -260 c11 -17 18 -3282
8 -3295 -10 -11 -471 -20 -523 -11 -44 9 -117 75 -146 133 l-24 48 -6 1370
c-3 754 -10 1402 -14 1441 -10 91 5 154 50 216 42 58 103 99 158 109 23 4 142
7 265 5 173 -2 225 -5 232 -16z"/>
<path d="M4400 3788 c-45 -30 -60 -61 -60 -123 0 -50 16 -86 50 -112 21 -17
1337 -18 1374 -2 47 22 62 128 26 187 -42 68 -25 66 -725 70 l-630 3 -35 -23z"/>
<path d="M4361 3107 c-88 -45 -94 -215 -8 -255 22 -11 128 -13 499 -13 584 0
613 3 642 65 19 41 20 122 2 154 -7 13 -26 32 -42 43 -28 18 -52 19 -549 19
-393 0 -526 -3 -544 -13z"/>
<path d="M4435 2390 c-85 -8 -112 -21 -131 -65 -19 -45 -17 -71 6 -123 34 -75
7 -72 725 -72 527 0 641 2 670 14 62 26 88 120 49 173 -38 50 -68 65 -151 74
-92 9 -1066 9 -1168 -1z"/>
</g>
</svg>
